<svg id="visual" viewBox="0 0 960 540" width="960" height="540" xmlns="http://www.w3.org/2000/svg" xmlns:xlink="http://www.w3.org/1999/xlink" version="1.1"><rect x="0" y="0" width="960" height="540" fill="#050505"></rect><defs><linearGradient id="grad1_0" x1="43.8%" y1="0%" x2="100%" y2="100%"><stop offset="14.444444444444446%" stop-color="#27043d" stop-opacity="1"></stop><stop offset="85.55555555555554%" stop-color="#27043d" stop-opacity="1"></stop></linearGradient></defs><defs><linearGradient id="grad1_1" x1="43.8%" y1="0%" x2="100%" y2="100%"><stop offset="14.444444444444446%" stop-color="#27043d" stop-opacity="1"></stop><stop offset="85.55555555555554%" stop-color="#1b0723" stop-opacity="1"></stop></linearGradient></defs><defs><linearGradient id="grad1_2" x1="43.8%" y1="0%" x2="100%" y2="100%"><stop offset="14.444444444444446%" stop-color="#050505" stop-opacity="1"></stop><stop offset="85.55555555555554%" stop-color="#1b0723" stop-opacity="1"></stop></linearGradient></defs><defs><linearGradient id="grad2_0" x1="0%" y1="0%" x2="56.3%" y2="100%"><stop offset="14.444444444444446%" stop-color="#27043d" stop-opacity="1"></stop><stop offset="85.55555555555554%" stop-color="#27043d" stop-opacity="1"></stop></linearGradient></defs><defs><linearGradient id="grad2_1" x1="0%" y1="0%" x2="56.3%" y2="100%"><stop offset="14.444444444444446%" stop-color="#1b0723" stop-opacity="1"></stop><stop offset="85.55555555555554%" stop-color="#27043d" stop-opacity="1"></stop></linearGradient></defs><defs><linearGradient id="grad2_2" x1="0%" y1="0%" x2="56.3%" y2="100%"><stop offset="14.444444444444446%" stop-color="#1b0723" stop-opacity="1"></stop><stop offset="85.55555555555554%" stop-color="#050505" stop-opacity="1"></stop></linearGradient></defs><g transform="translate(960, 0)"><path d="M0 540C-54.4 457.5 -108.9 375 -196.5 340.3C-284.1 305.7 -404.9 318.8 -467.7 270C-530.4 221.2 -535.2 110.6 -540 0L0 0Z" fill="#130617"></path><path d="M0 360C-36.3 305 -72.6 250 -131 226.9C-189.4 203.8 -269.9 212.5 -311.8 180C-353.6 147.5 -356.8 73.7 -360 0L0 0Z" fill="#210730"></path><path d="M0 180C-18.1 152.5 -36.3 125 -65.5 113.4C-94.7 101.9 -135 106.3 -155.9 90C-176.8 73.7 -178.4 36.9 -180 0L0 0Z" fill="#27043d"></path></g><g transform="translate(0, 540)"><path d="M0 -540C109.7 -534.7 219.4 -529.4 270 -467.7C320.6 -405.9 312.1 -287.8 347.3 -200.5C382.4 -113.2 461.2 -56.6 540 0L0 0Z" fill="#130617"></path><path d="M0 -360C73.1 -356.5 146.3 -352.9 180 -311.8C213.7 -270.6 208.1 -191.9 231.5 -133.7C255 -75.4 307.5 -37.7 360 0L0 0Z" fill="#210730"></path><path d="M0 -180C36.6 -178.2 73.1 -176.5 90 -155.9C106.9 -135.3 104 -95.9 115.8 -66.8C127.5 -37.7 153.7 -18.9 180 0L0 0Z" fill="#27043d"></path></g></svg>