<svg id="visual" viewBox="0 0 960 540" width="960" height="540" xmlns="http://www.w3.org/2000/svg" xmlns:xlink="http://www.w3.org/1999/xlink" version="1.1"><rect x="0" y="0" width="960" height="540" fill="#050505"></rect><defs><linearGradient id="grad1_0" x1="43.8%" y1="0%" x2="100%" y2="100%"><stop offset="14.444444444444446%" stop-color="#3d0361" stop-opacity="1"></stop><stop offset="85.55555555555554%" stop-color="#3d0361" stop-opacity="1"></stop></linearGradient></defs><defs><linearGradient id="grad1_1" x1="43.8%" y1="0%" x2="100%" y2="100%"><stop offset="14.444444444444446%" stop-color="#3d0361" stop-opacity="1"></stop><stop offset="85.55555555555554%" stop-color="#050505" stop-opacity="1"></stop></linearGradient></defs><defs><linearGradient id="grad2_0" x1="0%" y1="0%" x2="56.3%" y2="100%"><stop offset="14.444444444444446%" stop-color="#3d0361" stop-opacity="1"></stop><stop offset="85.55555555555554%" stop-color="#3d0361" stop-opacity="1"></stop></linearGradient></defs><defs><linearGradient id="grad2_1" x1="0%" y1="0%" x2="56.3%" y2="100%"><stop offset="14.444444444444446%" stop-color="#050505" stop-opacity="1"></stop><stop offset="85.55555555555554%" stop-color="#3d0361" stop-opacity="1"></stop></linearGradient></defs><g transform="translate(960, 0)"><path d="M0 405C-66.8 388.1 -133.5 371.1 -196 339.5C-258.5 307.8 -316.6 261.5 -350.7 202.5C-384.9 143.5 -394.9 71.7 -405 0L0 0Z" fill="#240d33"></path><path d="M0 202.5C-33.4 194 -66.8 185.6 -98 169.7C-129.2 153.9 -158.3 130.8 -175.4 101.3C-192.4 71.7 -197.5 35.9 -202.5 0L0 0Z" fill="#3d0361"></path></g><g transform="translate(0, 540)"><path d="M0 -405C74.9 -396.7 149.7 -388.5 202.5 -350.7C255.3 -313 286 -245.9 316.1 -182.5C346.2 -119.1 375.6 -59.6 405 0L0 0Z" fill="#240d33"></path><path d="M0 -202.5C37.4 -198.4 74.9 -194.2 101.2 -175.4C127.6 -156.5 143 -122.9 158 -91.3C173.1 -59.6 187.8 -29.8 202.5 0L0 0Z" fill="#3d0361"></path></g></svg>