<svg width="299" height="470" viewBox="0 0 299 470" fill="none" xmlns="http://www.w3.org/2000/svg">
<path d="M294.02 63.9409L213.328 449.613C212.809 452.092 211.856 454.402 210.574 456.408C206.131 463.398 197.638 467.266 189.074 465.474L54.4568 437.309C43.3389 434.983 35.5343 423.941 37.8447 412.898L118.537 27.2253C120.848 16.1825 133.701 9.46269 142.791 11.3645L278.16 39.687C289.202 41.9974 296.331 52.898 294.02 63.9409Z" fill="#252528"/>
<path d="M294.02 63.9413L293.486 66.4954L263.588 60.2399L268.319 37.6284L278.159 39.6874C289.202 41.9978 296.331 52.8984 294.02 63.9413Z" fill="url(#paint0_linear_19_2916)" fill-opacity="0.3"/>
<path d="M212.155 453.289L210.573 456.408C206.131 463.398 197.638 467.266 189.074 465.474L169.167 461.309L172.593 444.933L212.171 453.213L212.155 453.289Z" fill="url(#paint1_linear_19_2916)" fill-opacity="0.36"/>
<path d="M268.994 37.7706C280.112 40.0967 287.165 50.9816 284.855 62.0245L204.163 447.697C201.836 458.815 190.952 465.868 179.909 463.558L20.5137 430.209C9.47089 427.898 2.32668 417.073 4.65284 405.955L85.3452 20.282C87.6557 9.23916 98.5563 2.11068 109.599 4.42112L268.994 37.7706Z" fill="#36373F"/>
<g filter="url(#filter0_f_19_2916)">
<path d="M279.271 43.3696C281.451 45.3156 283.189 47.8748 284.323 50.6996C285.457 53.5244 285.762 56.5676 285.449 59.5602C285.301 61.0189 284.911 62.5056 284.688 63.9486L283.776 68.3057L281.953 77.0197L274.616 111.71L259.928 181.166L274.316 111.647L281.502 76.9254L283.325 68.2114L284.237 63.8543C284.536 62.427 284.834 60.9997 284.907 59.5253C285.276 53.6432 283.205 47.7997 279.271 43.3696Z" fill="#5B6072"/>
</g>
<g filter="url(#filter1_f_19_2916)">
<path d="M279.678 43.6426C281.859 45.5886 283.597 48.1477 284.731 50.9725C285.865 53.7973 286.169 56.8405 285.857 59.8331C285.708 61.2919 285.319 62.7786 285.095 64.2216L284.184 68.5786L282.361 77.2927L275.024 111.983L260.336 181.439L274.724 111.92L281.91 77.1984L283.733 68.4843L284.645 64.1273C284.943 62.7 285.242 61.2727 285.315 59.7982C285.683 53.9161 283.613 48.0726 279.678 43.6426Z" fill="#5B6072"/>
</g>
<path d="M267.264 168.587C266.362 168.399 265.843 167.506 266.016 166.68L274.582 125.738C274.771 124.837 275.663 124.318 276.49 124.491C277.391 124.68 277.91 125.572 277.737 126.399L269.171 167.34C269.058 168.257 268.165 168.776 267.264 168.587Z" fill="#474951"/>
<defs>
<filter id="filter0_f_19_2916" x="258.928" y="42.3696" width="27.637" height="139.796" filterUnits="userSpaceOnUse" color-interpolation-filters="sRGB">
<feFlood flood-opacity="0" result="BackgroundImageFix"/>
<feBlend mode="normal" in="SourceGraphic" in2="BackgroundImageFix" result="shape"/>
<feGaussianBlur stdDeviation="0.5" result="effect1_foregroundBlur_19_2916"/>
</filter>
<filter id="filter1_f_19_2916" x="259.335" y="42.6426" width="27.637" height="139.796" filterUnits="userSpaceOnUse" color-interpolation-filters="sRGB">
<feFlood flood-opacity="0" result="BackgroundImageFix"/>
<feBlend mode="normal" in="SourceGraphic" in2="BackgroundImageFix" result="shape"/>
<feGaussianBlur stdDeviation="0.5" result="effect1_foregroundBlur_19_2916"/>
</filter>
<linearGradient id="paint0_linear_19_2916" x1="282.423" y1="44.695" x2="279.379" y2="59.2456" gradientUnits="userSpaceOnUse">
<stop stop-color="#DDEFFF" stop-opacity="0"/>
<stop offset="0.4782" stop-color="#D1E4FF"/>
<stop offset="1" stop-color="#CFE8FF" stop-opacity="0"/>
</linearGradient>
<linearGradient id="paint1_linear_19_2916" x1="191.971" y1="448.74" x2="188.711" y2="464.323" gradientUnits="userSpaceOnUse">
<stop stop-opacity="0"/>
<stop offset="1"/>
</linearGradient>
</defs>
</svg>
