<svg width="728" height="868" viewBox="0 0 728 868" fill="none" xmlns="http://www.w3.org/2000/svg">
<g filter="url(#filter0_bdi_19_4203)">
<path d="M705.83 323.783L147.675 57.5571C143.721 55.6712 140.545 57.6934 140.58 62.0739L143.993 478.136C144.029 482.516 147.264 487.596 151.218 489.482L709.373 755.709C713.327 757.594 716.503 755.572 716.467 751.192L713.054 335.13C713.018 330.749 709.784 325.669 705.83 323.783Z" fill="#1B2023" fill-opacity="0.6" shape-rendering="crispEdges"/>
</g>
<g filter="url(#filter1_bdi_19_4203)">
<path d="M636.407 348.774L78.2514 82.5473C74.2975 80.6614 71.1214 82.6837 71.1573 87.0641L74.5704 503.126C74.6063 507.507 77.8407 512.587 81.7946 514.472L639.95 780.699C643.904 782.585 647.08 780.562 647.044 776.182L643.631 360.12C643.595 355.739 640.36 350.66 636.407 348.774Z" fill="#1B2023" fill-opacity="0.6" shape-rendering="crispEdges"/>
</g>
<g filter="url(#filter2_bdi_19_4203)">
<path d="M566.98 365.831L8.82516 99.6052C4.87127 97.7193 1.69515 99.7415 1.73108 104.122L5.14413 520.184C5.18007 524.564 8.41447 529.644 12.3683 531.53L570.523 797.757C574.477 799.643 577.653 797.62 577.618 793.24L574.204 377.178C574.169 372.797 570.934 367.717 566.98 365.831Z" fill="#1B2023" fill-opacity="0.6" shape-rendering="crispEdges"/>
</g>
<rect opacity="0.2" width="259.764" height="11.9983" rx="3.96591" transform="matrix(0.902585 0.430511 0.00820296 0.999966 169.199 182.074)" fill="#717A84"/>
<path d="M161.624 182.12L159.014 179.662C158.935 179.587 158.85 179.528 158.764 179.487C158.678 179.446 158.594 179.424 158.515 179.423L155.925 179.402C155.684 179.4 155.528 179.591 155.53 179.886C155.555 182.91 157.122 185.74 158.576 187.11C158.737 187.261 158.917 187.347 159.076 187.349C160.232 187.358 162.056 186.357 162.029 182.986C162.026 182.69 161.866 182.348 161.624 182.12ZM158.821 186.286L158.772 180.481L161.162 182.733C161.136 185.019 160.083 186.181 158.821 186.286Z" fill="#717A84"/>
<path d="M266.217 233.935L265.96 233.813L265.954 233.124C265.947 232.293 265.592 231.637 264.891 231.302C264.19 230.968 263.843 231.289 263.85 232.121L263.856 232.809L263.546 232.662C263.401 232.592 263.285 232.722 263.286 232.88L263.306 235.353C263.307 235.511 263.421 235.734 263.559 235.848L263.875 236.109C264.043 236.242 264.215 236.354 264.389 236.442L265.482 236.963C265.655 237.04 265.828 237.093 265.994 237.119L266.308 237.158C266.445 237.176 266.557 237.061 266.555 236.903L266.535 234.43C266.534 234.271 266.362 234.005 266.217 233.935ZM265.434 233.562L264.382 233.06L264.375 232.256C264.372 231.842 264.579 231.725 264.896 231.876C265.212 232.027 265.424 232.344 265.427 232.758L265.434 233.562Z" fill="#717A84"/>
<path d="M272.123 238.594C271.803 238.441 271.523 238.226 271.283 237.948C271.043 237.671 270.855 237.344 270.719 236.968C270.588 236.595 270.52 236.194 270.517 235.766C270.513 235.332 270.575 234.993 270.701 234.747C270.832 234.504 271.016 234.358 271.253 234.308C271.491 234.252 271.769 234.301 272.089 234.454C272.404 234.604 272.679 234.822 272.914 235.108C273.15 235.394 273.307 235.706 273.386 236.044L273.307 236.006L273.371 235.136L274.073 235.471C274.06 235.628 274.047 235.785 274.034 235.942C274.026 236.096 274.022 236.25 274.023 236.403L274.048 239.441L273.325 239.096L273.318 238.208L273.397 238.245C273.323 238.505 273.167 238.665 272.93 238.726C272.697 238.784 272.428 238.74 272.123 238.594ZM272.297 238.053C272.607 238.201 272.854 238.197 273.038 238.043C273.227 237.891 273.32 237.577 273.316 237.101C273.312 236.625 273.214 236.222 273.021 235.893C272.833 235.561 272.583 235.321 272.273 235.173C271.958 235.023 271.706 235.024 271.517 235.176C271.333 235.326 271.243 235.638 271.247 236.114C271.251 236.59 271.347 236.994 271.535 237.326C271.723 237.658 271.977 237.9 272.297 238.053ZM275.117 241.657L275.078 236.906C275.077 236.753 275.069 236.594 275.053 236.428C275.042 236.26 275.029 236.09 275.013 235.919L275.715 236.254L275.794 237.192L275.715 237.155C275.789 236.89 275.94 236.725 276.167 236.66C276.4 236.597 276.676 236.641 276.996 236.794C277.316 236.946 277.595 237.164 277.835 237.447C278.075 237.725 278.261 238.048 278.392 238.416C278.529 238.787 278.598 239.189 278.602 239.622C278.606 240.05 278.542 240.389 278.411 240.637C278.284 240.887 278.103 241.038 277.865 241.088C277.628 241.138 277.349 241.087 277.03 240.934C276.715 240.784 276.44 240.568 276.204 240.288C275.974 240.004 275.819 239.696 275.74 239.363L275.819 239.401L275.84 242.002L275.117 241.657ZM276.846 240.222C277.161 240.372 277.41 240.37 277.594 240.216C277.783 240.064 277.876 239.75 277.872 239.274C277.868 238.798 277.77 238.395 277.577 238.066C277.389 237.734 277.137 237.493 276.822 237.343C276.507 237.193 276.255 237.194 276.066 237.346C275.882 237.495 275.792 237.808 275.796 238.284C275.8 238.759 275.896 239.163 276.084 239.495C276.277 239.83 276.531 240.072 276.846 240.222ZM279.48 243.738L279.441 238.987C279.44 238.834 279.431 238.675 279.416 238.509C279.405 238.341 279.391 238.171 279.376 238L280.077 238.335L280.156 239.273L280.078 239.236C280.152 238.971 280.302 238.806 280.53 238.74C280.762 238.677 281.039 238.722 281.358 238.875C281.678 239.027 281.958 239.245 282.198 239.528C282.438 239.806 282.624 240.129 282.755 240.497C282.891 240.867 282.961 241.269 282.965 241.703C282.968 242.131 282.904 242.47 282.773 242.718C282.647 242.968 282.465 243.119 282.228 243.169C281.991 243.219 281.712 243.168 281.392 243.015C281.077 242.865 280.802 242.649 280.567 242.369C280.336 242.085 280.182 241.777 280.103 241.444L280.182 241.482L280.203 244.083L279.48 243.738ZM281.208 242.303C281.523 242.453 281.773 242.451 281.957 242.297C282.146 242.145 282.238 241.831 282.234 241.355C282.231 240.879 282.132 240.476 281.939 240.147C281.751 239.815 281.5 239.574 281.185 239.424C280.87 239.274 280.618 239.275 280.429 239.427C280.244 239.576 280.154 239.889 280.158 240.364C280.162 240.84 280.258 241.244 280.446 241.576C280.639 241.911 280.893 242.153 281.208 242.303ZM283.581 243.988L283.574 243.044L284.425 243.451L284.433 244.394L283.581 243.988ZM284.945 246.432L284.768 245.7C284.992 245.754 285.178 245.779 285.325 245.776C285.477 245.775 285.603 245.737 285.702 245.663C285.801 245.595 285.886 245.485 285.956 245.334L286.131 244.952L286.12 245.27L284.518 240.453L285.292 240.822L286.536 244.734L286.343 244.642L287.532 241.891L288.277 242.246L286.658 245.74C286.555 245.954 286.445 246.123 286.327 246.246C286.209 246.369 286.082 246.453 285.944 246.498C285.807 246.543 285.655 246.557 285.488 246.541C285.322 246.525 285.141 246.488 284.945 246.432ZM290.36 247.293C290.002 247.122 289.691 246.892 289.428 246.603C289.164 246.308 288.959 245.974 288.813 245.599C288.667 245.218 288.593 244.814 288.589 244.386C288.586 243.958 288.654 243.624 288.795 243.386C288.936 243.142 289.137 243.001 289.398 242.962C289.659 242.918 289.968 242.982 290.326 243.152C290.684 243.323 290.995 243.556 291.259 243.85C291.528 244.141 291.735 244.477 291.881 244.858C292.031 245.235 292.108 245.638 292.112 246.066C292.115 246.494 292.044 246.829 291.899 247.07C291.758 247.309 291.555 247.449 291.289 247.491C291.028 247.529 290.718 247.463 290.36 247.293ZM290.355 246.666C290.67 246.816 290.92 246.814 291.104 246.66C291.288 246.505 291.378 246.19 291.374 245.714C291.37 245.238 291.274 244.837 291.086 244.51C290.898 244.178 290.647 243.937 290.332 243.787C290.021 243.639 289.774 243.642 289.59 243.797C289.406 243.946 289.316 244.258 289.32 244.734C289.323 245.21 289.419 245.614 289.608 245.946C289.796 246.278 290.045 246.518 290.355 246.666ZM294.255 249.15C293.821 248.943 293.493 248.658 293.271 248.294C293.054 247.927 292.944 247.471 292.939 246.927L292.919 244.46L293.642 244.805L293.662 247.256C293.665 247.589 293.729 247.864 293.854 248.082C293.98 248.3 294.169 248.469 294.422 248.59C294.708 248.726 294.939 248.731 295.114 248.604C295.288 248.477 295.374 248.238 295.372 247.889L295.353 245.621L296.076 245.966L296.109 249.963L295.407 249.629L295.4 248.772L295.493 248.817C295.396 249.065 295.238 249.219 295.019 249.278C294.801 249.332 294.546 249.289 294.255 249.15ZM297.154 250.462L297.129 247.456C297.128 247.292 297.122 247.126 297.111 246.957C297.105 246.786 297.094 246.615 297.078 246.444L297.78 246.778L297.867 247.847L297.752 247.792C297.798 247.567 297.877 247.399 297.991 247.29C298.104 247.181 298.241 247.125 298.403 247.123C298.569 247.123 298.743 247.167 298.924 247.253C299.001 247.29 299.065 247.326 299.118 247.361C299.17 247.392 299.223 247.427 299.276 247.468L299.274 248.179C299.193 248.103 299.121 248.048 299.059 248.013C299.002 247.975 298.93 247.935 298.844 247.895C298.634 247.794 298.456 247.762 298.308 247.797C298.161 247.827 298.05 247.911 297.975 248.049C297.9 248.187 297.864 248.357 297.865 248.557L297.884 250.81L297.154 250.462ZM301.214 252.47C300.894 252.317 300.614 252.102 300.374 251.824C300.134 251.546 299.946 251.22 299.81 250.844C299.679 250.47 299.611 250.07 299.608 249.641C299.604 249.208 299.666 248.868 299.792 248.623C299.923 248.38 300.107 248.234 300.344 248.184C300.582 248.128 300.86 248.177 301.18 248.329C301.495 248.48 301.77 248.698 302.005 248.984C302.241 249.27 302.398 249.582 302.477 249.919L302.398 249.882L302.462 249.012L303.164 249.347C303.151 249.504 303.138 249.661 303.125 249.818C303.117 249.972 303.113 250.126 303.114 250.279L303.139 253.317L302.416 252.972L302.409 252.083L302.488 252.121C302.414 252.381 302.258 252.541 302.021 252.602C301.788 252.659 301.519 252.615 301.214 252.47ZM301.388 251.928C301.698 252.076 301.945 252.073 302.129 251.919C302.318 251.766 302.411 251.452 302.407 250.976C302.403 250.501 302.305 250.098 302.112 249.769C301.924 249.437 301.674 249.197 301.364 249.049C301.049 248.899 300.797 248.9 300.608 249.052C300.424 249.201 300.334 249.514 300.338 249.99C300.342 250.466 300.438 250.869 300.626 251.201C300.814 251.534 301.068 251.776 301.388 251.928ZM304.208 255.533L304.169 250.782C304.168 250.629 304.16 250.469 304.144 250.304C304.133 250.135 304.12 249.966 304.104 249.795L304.806 250.13L304.885 251.068L304.806 251.031C304.88 250.766 305.031 250.6 305.258 250.535C305.491 250.472 305.767 250.517 306.087 250.67C306.407 250.822 306.686 251.04 306.926 251.323C307.166 251.601 307.352 251.924 307.483 252.292C307.62 252.662 307.689 253.064 307.693 253.498C307.697 253.926 307.633 254.264 307.502 254.513C307.375 254.763 307.194 254.913 306.956 254.964C306.719 255.014 306.44 254.962 306.121 254.81C305.806 254.66 305.531 254.444 305.295 254.163C305.065 253.88 304.91 253.571 304.831 253.239L304.91 253.277L304.931 255.878L304.208 255.533ZM305.937 254.098C306.252 254.248 306.501 254.246 306.685 254.092C306.874 253.939 306.967 253.625 306.963 253.15C306.959 252.674 306.861 252.271 306.668 251.942C306.48 251.61 306.228 251.369 305.913 251.219C305.598 251.069 305.346 251.069 305.157 251.222C304.973 251.371 304.883 251.683 304.887 252.159C304.891 252.635 304.987 253.039 305.175 253.371C305.368 253.705 305.622 253.948 305.937 254.098ZM308.571 257.614L308.532 252.863C308.531 252.71 308.522 252.55 308.507 252.385C308.496 252.216 308.482 252.047 308.467 251.876L309.168 252.211L309.247 253.149L309.169 253.111C309.243 252.846 309.393 252.681 309.621 252.616C309.853 252.553 310.13 252.598 310.449 252.75C310.769 252.903 311.049 253.121 311.289 253.404C311.529 253.682 311.715 254.005 311.846 254.373C311.982 254.743 312.052 255.145 312.056 255.579C312.059 256.007 311.995 256.345 311.864 256.593C311.738 256.844 311.556 256.994 311.319 257.044C311.082 257.094 310.803 257.043 310.483 256.891C310.168 256.741 309.893 256.525 309.658 256.244C309.427 255.96 309.273 255.652 309.194 255.32L309.273 255.357L309.294 257.959L308.571 257.614ZM310.299 256.179C310.614 256.329 310.864 256.327 311.048 256.172C311.237 256.02 311.329 255.706 311.325 255.23C311.322 254.754 311.223 254.352 311.03 254.023C310.842 253.691 310.591 253.45 310.276 253.3C309.961 253.149 309.709 253.15 309.52 253.303C309.335 253.452 309.245 253.764 309.249 254.24C309.253 254.716 309.349 255.12 309.537 255.452C309.73 255.786 309.984 256.029 310.299 256.179ZM312.672 257.864L312.665 256.92L313.516 257.326L313.524 258.27L312.672 257.864ZM314.479 258.725L314.446 254.728L315.169 255.073L315.202 259.07L314.479 258.725ZM314.382 253.868L314.375 253.035L315.212 253.434L315.219 254.267L314.382 253.868ZM317.808 260.385C317.45 260.214 317.139 259.984 316.876 259.695C316.612 259.4 316.407 259.066 316.261 258.691C316.115 258.31 316.041 257.906 316.037 257.478C316.034 257.05 316.102 256.716 316.243 256.478C316.384 256.234 316.585 256.093 316.846 256.054C317.107 256.01 317.416 256.074 317.774 256.244C318.132 256.415 318.443 256.648 318.707 256.942C318.976 257.233 319.183 257.569 319.329 257.95C319.479 258.327 319.556 258.73 319.56 259.158C319.563 259.586 319.492 259.921 319.347 260.162C319.206 260.401 319.003 260.541 318.737 260.583C318.476 260.621 318.166 260.555 317.808 260.385ZM317.803 259.758C318.118 259.908 318.368 259.906 318.552 259.752C318.736 259.597 318.826 259.282 318.822 258.806C318.818 258.33 318.722 257.929 318.534 257.602C318.346 257.27 318.095 257.029 317.78 256.879C317.469 256.731 317.222 256.734 317.038 256.889C316.854 257.038 316.764 257.35 316.768 257.826C316.771 258.302 316.868 258.706 317.056 259.038C317.244 259.37 317.493 259.61 317.803 259.758Z" fill="#717A84"/>
<circle cx="2.39993" cy="2.39993" r="2.39993" transform="matrix(0.902585 0.430511 0.00820296 0.999966 8.24268 108.888)" fill="#D8695B"/>
<circle cx="2.39993" cy="2.39993" r="2.39993" transform="matrix(0.902585 0.430511 0.00820296 0.999966 15.2817 112.245)" fill="#EAC213"/>
<circle cx="2.39993" cy="2.39993" r="2.39993" transform="matrix(0.902585 0.430511 0.00820296 0.999966 22.3213 115.603)" fill="#79C743"/>
<path d="M40.7363 124.984L41.2779 125.242" stroke="#717A84" stroke-width="0.991477" stroke-linecap="square" stroke-linejoin="round"/>
<path d="M40.7468 126.184L41.2884 126.442" stroke="#717A84" stroke-width="0.991477" stroke-linecap="square" stroke-linejoin="round"/>
<rect x="-0.451513" y="-0.709143" width="9.39123" height="7.59129" rx="1.48722" transform="matrix(0.902585 0.430511 0.00820296 0.999966 39.6054 123.462)" stroke="#717A84" stroke-width="0.991477"/>
<path d="M42.3484 124.259L42.4074 131.459" stroke="#717A84" stroke-width="0.991477" stroke-linecap="square" stroke-linejoin="round"/>
<path d="M398.785 295.105C398.433 294.936 398.086 294.856 397.77 294.871C397.453 294.887 397.176 294.997 396.957 295.195C396.275 295.801 396.278 297.185 396.967 298.454C397.875 300.132 399.514 300.992 400.493 300.369C400.805 300.17 401.021 299.833 401.115 299.398C401.209 298.962 401.177 298.446 401.024 297.909C400.949 297.645 400.687 297.453 400.534 297.551C400.457 297.6 400.427 297.712 400.464 297.842C400.607 298.332 400.614 298.798 400.485 299.161C400.356 299.523 400.097 299.761 399.754 299.834C399.191 299.965 398.439 299.601 397.874 298.928C397.648 298.664 397.456 298.362 397.313 298.045C397.17 297.728 397.079 297.404 397.048 297.098C397.016 296.791 397.044 296.509 397.129 296.273C397.215 296.037 397.356 295.853 397.542 295.734C397.885 295.515 398.337 295.549 398.79 295.767L398.796 296.466C398.798 296.758 399.117 297.057 399.301 296.94L400.044 296.467C400.158 296.394 400.157 296.186 400.041 296.004L399.284 294.815C399.096 294.521 398.778 294.514 398.78 294.806L398.785 295.105Z" fill="#717A84"/>
<path fill-rule="evenodd" clip-rule="evenodd" d="M557.357 370.748C557.354 370.319 557.655 370.104 558.075 370.303C558.496 370.503 558.767 370.634 558.767 370.634C558.767 370.634 558.745 370.167 558.742 369.802C558.739 369.437 559.026 369.21 559.447 369.41C559.867 369.611 563.765 371.457 564.161 371.678C564.556 371.899 564.873 372.324 564.877 372.767C564.881 373.211 564.914 377.603 564.918 378.01C564.921 378.417 564.594 378.629 564.186 378.44C563.777 378.25 563.501 378.107 563.501 378.107C563.501 378.107 563.52 378.629 563.522 378.944C563.525 379.26 563.197 379.561 562.809 379.375C562.42 379.19 558.475 377.336 558.099 377.157C557.722 376.977 557.372 376.444 557.384 375.995C557.397 375.545 557.361 371.178 557.357 370.748L557.357 370.748ZM559.489 370.302L559.527 375.362C559.528 375.418 559.57 375.484 559.621 375.508L564.068 377.603C564.093 377.615 564.116 377.615 564.133 377.604C564.151 377.593 564.16 377.571 564.16 377.544L564.116 372.527C564.116 372.499 564.105 372.468 564.088 372.44C564.07 372.412 564.046 372.39 564.021 372.378L559.582 370.244C559.569 370.238 559.557 370.235 559.546 370.234C559.535 370.234 559.524 370.237 559.516 370.242C559.507 370.248 559.5 370.256 559.496 370.266C559.491 370.276 559.489 370.288 559.489 370.302ZM558.078 371.301L558.162 376.284C558.162 376.311 558.173 376.342 558.19 376.37C558.208 376.397 558.232 376.419 558.257 376.431L562.637 378.483C562.661 378.495 562.685 378.501 562.708 378.501C562.73 378.501 562.75 378.496 562.767 378.485C562.784 378.473 562.797 378.457 562.806 378.436C562.815 378.415 562.82 378.391 562.819 378.364L562.808 377.786C562.808 377.786 559.882 376.42 559.501 376.239C559.121 376.057 558.78 375.497 558.776 375.048C558.772 374.599 558.774 371.519 558.774 371.519C558.774 371.462 558.733 371.397 558.682 371.373L558.261 371.18C558.212 371.157 558.165 371.157 558.13 371.179C558.096 371.202 558.077 371.246 558.078 371.301Z" fill="#717A84"/>
<path d="M544.72 366.119L544.694 362.969L543.882 362.581L543.908 365.731L541.065 364.375L541.072 365.275L543.915 366.631L543.941 369.781L544.753 370.168L544.728 367.019L547.571 368.375L547.563 367.475L544.72 366.119Z" fill="#717A84"/>
<path d="M528.04 354.427L526.609 355.339L527.692 355.855L527.722 359.455L528.444 359.799L528.414 356.199L529.498 356.716L528.04 354.427ZM530.279 364.26L525.946 362.194C525.755 362.102 525.57 361.93 525.434 361.716C525.297 361.501 525.219 361.261 525.218 361.049L525.178 356.25C525.177 356.037 525.251 355.87 525.385 355.785C525.519 355.699 525.702 355.703 525.894 355.794L526.977 356.311L526.983 357.111L525.9 356.594L525.94 361.394L530.272 363.46L530.233 358.66L529.15 358.144L529.143 357.344L530.226 357.86C530.418 357.952 530.602 358.124 530.739 358.338C530.875 358.553 530.953 358.793 530.955 359.005L530.994 363.804C530.996 364.017 530.921 364.184 530.787 364.269C530.653 364.355 530.47 364.351 530.279 364.26Z" fill="#717A84"/>
<path d="M59.3088 132.55L56.6257 134.258L59.0847 138.12" stroke="white" stroke-width="1.48722" stroke-linecap="round" stroke-linejoin="round"/>
<path opacity="0.5" d="M69.3722 143.027L72.0552 141.319L69.5962 137.456" stroke="white" stroke-width="1.48722" stroke-linecap="round" stroke-linejoin="round"/>
<path d="M1.85693 119.425L574.322 392.477" stroke="black" stroke-width="0.991477"/>
<defs>
<filter id="filter0_bdi_19_4203" x="33.5006" y="-50.2284" width="790.046" height="913.723" filterUnits="userSpaceOnUse" color-interpolation-filters="sRGB">
<feFlood flood-opacity="0" result="BackgroundImageFix"/>
<feGaussianBlur in="BackgroundImageFix" stdDeviation="53.5398"/>
<feComposite in2="SourceAlpha" operator="in" result="effect1_backgroundBlur_19_4203"/>
<feColorMatrix in="SourceAlpha" type="matrix" values="0 0 0 0 0 0 0 0 0 0 0 0 0 0 0 0 0 0 127 0" result="hardAlpha"/>
<feOffset dy="6.94034"/>
<feGaussianBlur stdDeviation="5.45312"/>
<feComposite in2="hardAlpha" operator="out"/>
<feColorMatrix type="matrix" values="0 0 0 0 0 0 0 0 0 0 0 0 0 0 0 0 0 0 0.28 0"/>
<feBlend mode="normal" in2="effect1_backgroundBlur_19_4203" result="effect2_dropShadow_19_4203"/>
<feBlend mode="normal" in="SourceGraphic" in2="effect2_dropShadow_19_4203" result="shape"/>
<feColorMatrix in="SourceAlpha" type="matrix" values="0 0 0 0 0 0 0 0 0 0 0 0 0 0 0 0 0 0 127 0" result="hardAlpha"/>
<feOffset dy="0.991477"/>
<feComposite in2="hardAlpha" operator="arithmetic" k2="-1" k3="1"/>
<feColorMatrix type="matrix" values="0 0 0 0 1 0 0 0 0 1 0 0 0 0 1 0 0 0 0.1 0"/>
<feBlend mode="normal" in2="shape" result="effect3_innerShadow_19_4203"/>
</filter>
<filter id="filter1_bdi_19_4203" x="-35.9225" y="-25.2382" width="790.046" height="913.723" filterUnits="userSpaceOnUse" color-interpolation-filters="sRGB">
<feFlood flood-opacity="0" result="BackgroundImageFix"/>
<feGaussianBlur in="BackgroundImageFix" stdDeviation="53.5398"/>
<feComposite in2="SourceAlpha" operator="in" result="effect1_backgroundBlur_19_4203"/>
<feColorMatrix in="SourceAlpha" type="matrix" values="0 0 0 0 0 0 0 0 0 0 0 0 0 0 0 0 0 0 127 0" result="hardAlpha"/>
<feOffset dx="40.6506" dy="-0.991477"/>
<feGaussianBlur stdDeviation="4.46165"/>
<feComposite in2="hardAlpha" operator="out"/>
<feColorMatrix type="matrix" values="0 0 0 0 0 0 0 0 0 0 0 0 0 0 0 0 0 0 0.2 0"/>
<feBlend mode="normal" in2="effect1_backgroundBlur_19_4203" result="effect2_dropShadow_19_4203"/>
<feBlend mode="normal" in="SourceGraphic" in2="effect2_dropShadow_19_4203" result="shape"/>
<feColorMatrix in="SourceAlpha" type="matrix" values="0 0 0 0 0 0 0 0 0 0 0 0 0 0 0 0 0 0 127 0" result="hardAlpha"/>
<feOffset dy="0.991477"/>
<feComposite in2="hardAlpha" operator="arithmetic" k2="-1" k3="1"/>
<feColorMatrix type="matrix" values="0 0 0 0 1 0 0 0 0 1 0 0 0 0 1 0 0 0 0.1 0"/>
<feBlend mode="normal" in2="shape" result="effect3_innerShadow_19_4203"/>
</filter>
<filter id="filter2_bdi_19_4203" x="-105.349" y="-8.18034" width="790.046" height="913.723" filterUnits="userSpaceOnUse" color-interpolation-filters="sRGB">
<feFlood flood-opacity="0" result="BackgroundImageFix"/>
<feGaussianBlur in="BackgroundImageFix" stdDeviation="53.5398"/>
<feComposite in2="SourceAlpha" operator="in" result="effect1_backgroundBlur_19_4203"/>
<feColorMatrix in="SourceAlpha" type="matrix" values="0 0 0 0 0 0 0 0 0 0 0 0 0 0 0 0 0 0 127 0" result="hardAlpha"/>
<feOffset dx="40.6506" dy="-0.991477"/>
<feGaussianBlur stdDeviation="4.46165"/>
<feComposite in2="hardAlpha" operator="out"/>
<feColorMatrix type="matrix" values="0 0 0 0 0 0 0 0 0 0 0 0 0 0 0 0 0 0 0.2 0"/>
<feBlend mode="normal" in2="effect1_backgroundBlur_19_4203" result="effect2_dropShadow_19_4203"/>
<feBlend mode="normal" in="SourceGraphic" in2="effect2_dropShadow_19_4203" result="shape"/>
<feColorMatrix in="SourceAlpha" type="matrix" values="0 0 0 0 0 0 0 0 0 0 0 0 0 0 0 0 0 0 127 0" result="hardAlpha"/>
<feOffset dy="0.991477"/>
<feComposite in2="hardAlpha" operator="arithmetic" k2="-1" k3="1"/>
<feColorMatrix type="matrix" values="0 0 0 0 1 0 0 0 0 1 0 0 0 0 1 0 0 0 0.1 0"/>
<feBlend mode="normal" in2="shape" result="effect3_innerShadow_19_4203"/>
</filter>
</defs>
</svg>
