<svg width="415" height="618" viewBox="0 0 415 618" fill="none" xmlns="http://www.w3.org/2000/svg">
<path d="M407.122 97.7124L274.286 591.699C273.432 594.875 272.027 597.798 270.218 600.304C263.949 609.039 252.656 613.431 241.687 610.481L69.2634 564.116C55.023 560.286 45.7156 545.402 49.5191 531.258L182.355 37.2715C186.158 23.1273 203.311 15.3586 214.953 18.4893L388.339 65.1137C402.484 68.9172 410.925 83.5683 407.122 97.7124Z" fill="#252528"/>
<path d="M407.122 97.7132L406.242 100.985L367.947 90.6869L375.735 61.7251L388.34 65.1146C402.484 68.918 410.925 83.5691 407.122 97.7132Z" fill="url(#paint0_linear_6_560)" fill-opacity="0.3"/>
<path d="M272.496 596.377L270.218 600.304C263.949 609.039 252.656 613.431 241.687 610.481L216.189 603.625L221.83 582.649L272.522 596.281L272.496 596.377Z" fill="url(#paint1_linear_6_560)"/>
<path d="M376.6 61.9579C390.841 65.7872 399.186 80.4125 395.383 94.5566L262.547 588.543C258.718 602.784 244.092 611.129 229.948 607.326L25.788 552.426C11.6439 548.622 3.17659 534.068 7.0059 519.827L139.841 25.8403C143.645 11.6961 158.296 3.25475 172.44 7.05818L376.6 61.9579Z" fill="#36373F"/>
<g filter="url(#filter0_f_6_560)">
<path d="M389.51 69.969C392.194 72.651 394.26 76.0954 395.522 79.8399C396.785 83.5843 396.957 87.5511 396.333 91.4071C396.034 93.287 395.42 95.1855 395.024 97.0396L393.524 102.62L390.522 113.782L378.473 158.209L354.347 247.159L378.088 158.105L389.945 113.626L392.946 102.465L394.447 96.8843C394.939 95.0562 395.43 93.228 395.633 91.3222C396.541 83.725 394.285 75.9992 389.51 69.969Z" fill="#5B6072"/>
</g>
<g filter="url(#filter1_f_6_560)">
<path d="M390.019 70.3521C392.703 73.034 394.769 76.4785 396.032 80.2229C397.294 83.9674 397.466 87.9342 396.842 91.7902C396.543 93.6701 395.929 95.5686 395.533 97.4226L394.033 103.003L391.031 114.165L378.982 158.592L354.856 247.542L378.597 158.488L390.454 114.009L393.456 102.848L394.956 97.2674C395.448 95.4392 395.939 93.6111 396.142 91.7053C397.05 84.1081 394.794 76.3823 390.019 70.3521Z" fill="#5B6072"/>
</g>
<path d="M26.0982 549.414C13.4935 546.024 6.03694 533.082 9.42639 520.478L142.262 26.4909C145.651 13.8862 158.593 6.42962 171.198 9.81908L375.824 64.8442C388.429 68.2337 395.886 81.1755 392.496 93.7801L259.661 587.767C256.271 600.372 243.329 607.828 230.725 604.439L26.0982 549.414Z" fill="#252528"/>
<path opacity="0.3" d="M364.777 231.392C363.623 231.082 363.015 229.887 363.3 228.828L377.401 176.389C377.712 175.234 378.907 174.627 379.965 174.912C381.12 175.222 381.727 176.417 381.442 177.476L367.341 229.915C367.127 231.095 365.932 231.703 364.777 231.392Z" fill="#474951"/>
<defs>
<filter id="filter0_f_6_560" x="353.347" y="68.969" width="44.3369" height="179.19" filterUnits="userSpaceOnUse" color-interpolation-filters="sRGB">
<feFlood flood-opacity="0" result="BackgroundImageFix"/>
<feBlend mode="normal" in="SourceGraphic" in2="BackgroundImageFix" result="shape"/>
<feGaussianBlur stdDeviation="0.5" result="effect1_foregroundBlur_6_560"/>
</filter>
<filter id="filter1_f_6_560" x="353.856" y="69.3521" width="44.3369" height="179.19" filterUnits="userSpaceOnUse" color-interpolation-filters="sRGB">
<feFlood flood-opacity="0" result="BackgroundImageFix"/>
<feBlend mode="normal" in="SourceGraphic" in2="BackgroundImageFix" result="shape"/>
<feGaussianBlur stdDeviation="0.5" result="effect1_foregroundBlur_6_560"/>
</filter>
<linearGradient id="paint0_linear_6_560" x1="393.499" y1="71.9176" x2="388.488" y2="90.5546" gradientUnits="userSpaceOnUse">
<stop stop-color="#DDEFFF" stop-opacity="0"/>
<stop offset="0.4782" stop-color="#D1E4FF"/>
<stop offset="1" stop-color="#CFE8FF" stop-opacity="0"/>
</linearGradient>
<linearGradient id="paint1_linear_6_560" x1="246.668" y1="589.003" x2="241.3" y2="608.962" gradientUnits="userSpaceOnUse">
<stop stop-color="#252528"/>
<stop offset="1" stop-color="#0F0F10"/>
</linearGradient>
</defs>
</svg>
