<svg width="1373" height="768" viewBox="0 0 1373 768" fill="none" xmlns="http://www.w3.org/2000/svg">
<g filter="url(#filter0_d_9_381)">
<path d="M321.233 645.37C223.011 645.37 211.716 645.695 64.0638 646.418L54.2334 649.866C69.9045 654.327 116.928 666.912 133.4 666.912H1172.38C1181.85 666.912 1201.04 662.824 1218.15 658.65C1235.97 654.302 1251.55 649.866 1251.55 649.866L1241.71 646.418C638.672 645.749 428.303 645.37 321.233 645.37Z" fill="#E8ECF7"/>
</g>
<path d="M1107.85 0H197.397C190.063 0.00886512 183.032 2.93083 177.852 8.12287C172.672 13.3149 169.767 20.3516 169.775 27.6857V629.544C169.768 633.723 170.71 637.847 172.528 641.609H1132.72C1134.54 637.848 1135.48 633.723 1135.47 629.544V27.6792C1135.48 20.3459 1132.57 13.3108 1127.39 8.12026C1122.21 2.92974 1115.18 0.0088655 1107.85 0Z" fill="#3C3C44"/>
<path d="M652.621 18.3623C654.409 18.3623 655.859 16.9188 655.859 15.1382C655.859 13.3575 654.409 11.9141 652.621 11.9141C650.833 11.9141 649.384 13.3575 649.384 15.1382C649.384 16.9188 650.833 18.3623 652.621 18.3623Z" fill="#5C6172"/>
<path d="M321.233 645.37C223.011 645.37 211.716 645.695 64.0638 646.418L54.2334 649.866C69.9045 654.327 116.928 666.912 133.4 666.912H1172.38C1181.85 666.912 1201.04 662.824 1218.15 658.65C1235.97 654.302 1251.55 649.866 1251.55 649.866L1241.71 646.418C638.672 645.749 428.303 645.37 321.233 645.37Z" fill="url(#paint0_linear_9_381)"/>
<path d="M1249.54 641.063H56.4621C56.0069 641.064 55.5562 641.154 55.1357 641.329C54.7153 641.503 54.3334 641.759 54.0119 642.081C53.6903 642.403 53.4356 642.786 53.2619 643.207C53.0883 643.628 52.9993 644.078 53 644.533V646.75C52.9993 647.206 53.0883 647.656 53.2619 648.077C53.4356 648.498 53.6903 648.88 54.0119 649.203C54.3334 649.525 54.7153 649.781 55.1357 649.956C55.5562 650.13 56.0069 650.22 56.4621 650.22H1249.54C1249.99 650.22 1250.44 650.13 1250.86 649.956C1251.28 649.781 1251.67 649.526 1251.99 649.203C1252.31 648.881 1252.56 648.499 1252.74 648.078C1252.91 647.657 1253 647.206 1253 646.75V644.533C1253 644.078 1252.91 643.628 1252.74 643.207C1252.56 642.786 1252.31 642.403 1251.99 642.081C1251.67 641.758 1251.28 641.503 1250.86 641.328C1250.44 641.153 1249.99 641.064 1249.54 641.063Z" fill="#5C6172"/>
<path d="M738.951 640.922H566.374C575.562 644.9 585.468 646.955 595.48 646.959H709.853C719.864 646.95 729.768 644.896 738.956 640.922" fill="#3C3C42"/>
<path d="M1109.98 33.0444H195.205C191.891 33.0444 189.205 35.7308 189.205 39.0445V621.885C189.205 625.199 191.891 627.885 195.205 627.885H1109.98C1113.3 627.885 1115.98 625.199 1115.98 621.885V39.0444C1115.98 35.7307 1113.3 33.0444 1109.98 33.0444Z" fill="white"/>
<defs>
<filter id="filter0_d_9_381" x="0.439285" y="516.958" width="1499.26" height="323.483" filterUnits="userSpaceOnUse" color-interpolation-filters="sRGB">
<feFlood flood-opacity="0" result="BackgroundImageFix"/>
<feColorMatrix in="SourceAlpha" type="matrix" values="0 0 0 0 0 0 0 0 0 0 0 0 0 0 0 0 0 0 127 0" result="hardAlpha"/>
<feOffset dx="97.1765" dy="22.5588"/>
<feGaussianBlur stdDeviation="75.4853"/>
<feColorMatrix type="matrix" values="0 0 0 0 0.0911979 0 0 0 0 0.117884 0 0 0 0 0.2125 0 0 0 1 0"/>
<feBlend mode="normal" in2="BackgroundImageFix" result="effect1_dropShadow_9_381"/>
<feBlend mode="normal" in="SourceGraphic" in2="effect1_dropShadow_9_381" result="shape"/>
</filter>
<linearGradient id="paint0_linear_9_381" x1="652.89" y1="672.297" x2="652.89" y2="639.985" gradientUnits="userSpaceOnUse">
<stop stop-color="#252528"/>
<stop offset="0.27" stop-color="#252528"/>
<stop offset="1" stop-color="#5C6172"/>
</linearGradient>
</defs>
</svg>
