<svg width="1440" height="900" viewBox="0 0 1440 900" fill="none" xmlns="http://www.w3.org/2000/svg">
<mask id="mask0_69_859" style="mask-type:alpha" maskUnits="userSpaceOnUse" x="-455" y="-820" width="1922" height="1692">
<rect x="-453.66" y="218" width="1136.75" height="1593.32" transform="rotate(-65.8271 -453.66 218)" fill="url(#paint0_linear_69_859)" stroke="url(#paint1_linear_69_859)" stroke-width="1.34864"/>
</mask>
<g mask="url(#mask0_69_859)">
<path d="M657.086 -367.727C968.456 -227.969 1118.27 114.013 991.682 396.045C978.405 425.625 962.568 453.475 944.575 479.343C1007.06 218.291 857.823 -68.7448 579.051 -193.872C300.278 -318.999 -13.2546 -239.676 -166.894 -19.5394C-159.526 -50.1753 -149.243 -80.5184 -135.966 -110.098C-9.37586 -392.131 345.715 -507.486 657.086 -367.727Z" fill="url(#paint2_linear_69_859)" stroke="url(#paint3_linear_69_859)" stroke-width="2.10657" stroke-miterlimit="10"/>
<g filter="url(#filter0_f_69_859)">
<path d="M648.415 -348.41C959.786 -208.652 1118.27 114.013 991.682 396.045C978.405 425.625 962.568 453.475 944.575 479.343C1007.06 218.291 866.494 -88.0621 587.721 -213.189C308.948 -338.316 -13.2546 -239.676 -166.894 -19.5394C-159.526 -50.1753 -149.243 -80.5184 -135.966 -110.098C-9.37586 -392.131 337.044 -488.169 648.415 -348.41Z" fill="url(#paint4_linear_69_859)"/>
<path d="M648.415 -348.41C959.786 -208.652 1118.27 114.013 991.682 396.045C978.405 425.625 962.568 453.475 944.575 479.343C1007.06 218.291 866.494 -88.0621 587.721 -213.189C308.948 -338.316 -13.2546 -239.676 -166.894 -19.5394C-159.526 -50.1753 -149.243 -80.5184 -135.966 -110.098C-9.37586 -392.131 337.044 -488.169 648.415 -348.41Z" stroke="url(#paint5_linear_69_859)" stroke-width="2.10657" stroke-miterlimit="10"/>
</g>
<g filter="url(#filter1_f_69_859)">
<path d="M644.08 -338.752C955.45 -198.993 1119.26 137.665 992.67 419.698C979.393 449.277 963.556 477.128 945.563 502.995C1008.05 241.944 870.829 -97.721 592.056 -222.848C313.284 -347.975 -23.4274 -213.781 -177.067 6.35638C-169.699 -24.2796 -159.416 -54.6227 -146.139 -84.2023C-19.5487 -366.235 332.709 -478.51 644.08 -338.752Z" fill="url(#paint6_linear_69_859)"/>
<path d="M644.08 -338.752C955.45 -198.993 1119.26 137.665 992.67 419.698C979.393 449.277 963.556 477.128 945.563 502.995C1008.05 241.944 870.829 -97.721 592.056 -222.848C313.284 -347.975 -23.4274 -213.781 -177.067 6.35638C-169.699 -24.2796 -159.416 -54.6227 -146.139 -84.2023C-19.5487 -366.235 332.709 -478.51 644.08 -338.752Z" stroke="url(#paint7_linear_69_859)" stroke-width="2.10657" stroke-miterlimit="10"/>
</g>
<g filter="url(#filter2_f_69_859)">
<path d="M644.08 -338.752C955.45 -198.993 1119.26 137.665 992.67 419.698C979.393 449.277 963.556 477.128 945.563 502.995C1008.05 241.944 870.829 -97.721 592.056 -222.848C313.284 -347.975 -23.4274 -213.781 -177.067 6.35638C-169.699 -24.2796 -159.416 -54.6227 -146.139 -84.2023C-19.5487 -366.235 332.709 -478.51 644.08 -338.752Z" fill="url(#paint8_linear_69_859)"/>
<path d="M644.08 -338.752C955.45 -198.993 1119.26 137.665 992.67 419.698C979.393 449.277 963.556 477.128 945.563 502.995C1008.05 241.944 870.829 -97.721 592.056 -222.848C313.284 -347.975 -23.4274 -213.781 -177.067 6.35638C-169.699 -24.2796 -159.416 -54.6227 -146.139 -84.2023C-19.5487 -366.235 332.709 -478.51 644.08 -338.752Z" stroke="url(#paint9_linear_69_859)" stroke-width="2.10657" stroke-miterlimit="10"/>
</g>
<g filter="url(#filter3_f_69_859)">
<path d="M644.08 -338.752C955.45 -198.993 1119.26 137.665 992.67 419.698C979.393 449.277 963.556 477.128 945.563 502.995C1008.05 241.944 870.829 -97.721 592.056 -222.848C313.284 -347.975 -23.4274 -213.781 -177.067 6.35638C-169.699 -24.2796 -159.416 -54.6227 -146.139 -84.2023C-19.5487 -366.235 332.709 -478.51 644.08 -338.752Z" fill="url(#paint10_linear_69_859)"/>
<path d="M644.08 -338.752C955.45 -198.993 1119.26 137.665 992.67 419.698C979.393 449.277 963.556 477.128 945.563 502.995C1008.05 241.944 870.829 -97.721 592.056 -222.848C313.284 -347.975 -23.4274 -213.781 -177.067 6.35638C-169.699 -24.2796 -159.416 -54.6227 -146.139 -84.2023C-19.5487 -366.235 332.709 -478.51 644.08 -338.752Z" stroke="url(#paint11_linear_69_859)" stroke-width="2.10657" stroke-miterlimit="10"/>
</g>
<g filter="url(#filter4_f_69_859)">
<path d="M640.157 -276.688C951.527 -136.929 1119.26 137.665 992.67 419.698C979.393 449.277 963.556 477.128 945.563 502.995C1008.05 241.944 892.792 -125.578 606.146 -254.238C246.991 -415.445 -23.4274 -213.781 -177.067 6.35638C-169.699 -24.2796 -159.416 -54.6227 -146.139 -84.2023C-19.5487 -366.235 328.786 -416.446 640.157 -276.688Z" fill="url(#paint12_linear_69_859)"/>
<path d="M640.157 -276.688C951.527 -136.929 1119.26 137.665 992.67 419.698C979.393 449.277 963.556 477.128 945.563 502.995C1008.05 241.944 892.792 -125.578 606.146 -254.238C246.991 -415.445 -23.4274 -213.781 -177.067 6.35638C-169.699 -24.2796 -159.416 -54.6227 -146.139 -84.2023C-19.5487 -366.235 328.786 -416.446 640.157 -276.688Z" stroke="url(#paint13_linear_69_859)" stroke-width="2.10657" stroke-miterlimit="10"/>
</g>
<g filter="url(#filter5_f_69_859)">
<path d="M640.157 -276.688C951.527 -136.929 1178.77 123.036 1052.18 405.068C1038.9 434.648 926.017 501.62 908.024 527.487C970.511 266.436 892.792 -125.578 606.146 -254.239C246.99 -415.445 -5.0133 -171.427 -158.653 48.7097C-130.522 61.3362 -222.968 -37.4555 -209.691 -67.0351C-83.1013 -349.068 328.786 -416.446 640.157 -276.688Z" fill="url(#paint14_linear_69_859)"/>
<path d="M640.157 -276.688C951.527 -136.929 1178.77 123.036 1052.18 405.068C1038.9 434.648 926.017 501.62 908.024 527.487C970.511 266.436 892.792 -125.578 606.146 -254.239C246.99 -415.445 -5.0133 -171.427 -158.653 48.7097C-130.522 61.3362 -222.968 -37.4555 -209.691 -67.0351C-83.1013 -349.068 328.786 -416.446 640.157 -276.688Z" stroke="url(#paint15_linear_69_859)" stroke-width="2.10657" stroke-miterlimit="10"/>
</g>
<g filter="url(#filter6_f_69_859)">
<path d="M640.157 -276.688C951.527 -136.929 1178.77 123.036 1052.18 405.068C1038.9 434.648 926.017 501.62 908.024 527.487C970.511 266.436 892.792 -125.578 606.146 -254.239C246.99 -415.445 -5.0133 -171.427 -158.653 48.7097C-130.522 61.3362 -222.968 -37.4555 -209.691 -67.0351C-83.1013 -349.068 328.786 -416.446 640.157 -276.688Z" fill="url(#paint16_linear_69_859)"/>
<path d="M640.157 -276.688C951.527 -136.929 1178.77 123.036 1052.18 405.068C1038.9 434.648 926.017 501.62 908.024 527.487C970.511 266.436 892.792 -125.578 606.146 -254.239C246.99 -415.445 -5.0133 -171.427 -158.653 48.7097C-130.522 61.3362 -222.968 -37.4555 -209.691 -67.0351C-83.1013 -349.068 328.786 -416.446 640.157 -276.688Z" stroke="url(#paint17_linear_69_859)" stroke-width="2.10657" stroke-miterlimit="10"/>
</g>
<g filter="url(#filter7_f_69_859)">
<path d="M640.157 -276.688C951.527 -136.929 1178.77 123.036 1052.18 405.068C1038.9 434.648 926.017 501.62 908.024 527.487C970.511 266.436 892.792 -125.578 606.146 -254.239C246.99 -415.445 -5.0133 -171.427 -158.653 48.7097C-130.522 61.3362 -222.968 -37.4555 -209.691 -67.0351C-83.1013 -349.068 328.786 -416.446 640.157 -276.688Z" fill="url(#paint18_linear_69_859)"/>
<path d="M640.157 -276.688C951.527 -136.929 1178.77 123.036 1052.18 405.068C1038.9 434.648 926.017 501.62 908.024 527.487C970.511 266.436 892.792 -125.578 606.146 -254.239C246.99 -415.445 -5.0133 -171.427 -158.653 48.7097C-130.522 61.3362 -222.968 -37.4555 -209.691 -67.0351C-83.1013 -349.068 328.786 -416.446 640.157 -276.688Z" stroke="url(#paint19_linear_69_859)" stroke-width="2.10657" stroke-miterlimit="10"/>
</g>
</g>
<g filter="url(#filter8_f_69_859)">
<circle cx="651.5" cy="431.5" r="289.5" fill="#B3FF4C" fill-opacity="0.1"/>
</g>
<mask id="mask1_69_859" style="mask-type:alpha" maskUnits="userSpaceOnUse" x="-51" y="-598" width="1724" height="1934">
<rect x="651.355" y="-596.54" width="1136.75" height="1593.32" transform="rotate(26.1152 651.355 -596.54)" fill="url(#paint20_linear_69_859)" stroke="url(#paint21_linear_69_859)" stroke-width="1.34864"/>
</mask>
<g mask="url(#mask1_69_859)">
<path d="M1199.1 533.42C1048.87 839.875 702.005 978.014 424.425 841.938C395.312 827.666 368.014 810.894 342.772 792.035C601.555 863.333 893.485 723.909 1027.99 449.538C1162.49 175.166 1093.84 -140.875 879.038 -301.887C909.407 -293.485 939.384 -282.179 968.496 -267.908C1246.08 -131.831 1349.33 226.965 1199.1 533.42Z" fill="url(#paint22_linear_69_859)" stroke="url(#paint23_linear_69_859)" stroke-width="2.10657" stroke-miterlimit="10"/>
<g filter="url(#filter9_f_69_859)">
<path d="M1180.09 524.1C1029.86 830.555 702.005 978.014 424.425 841.938C395.312 827.666 368.014 810.894 342.772 792.035C601.555 863.333 912.497 733.23 1047 458.858C1181.5 184.486 1093.84 -140.875 879.038 -301.887C909.407 -293.485 939.384 -282.179 968.496 -267.908C1246.08 -131.831 1330.32 217.645 1180.09 524.1Z" fill="url(#paint24_linear_69_859)"/>
<path d="M1180.09 524.1C1029.86 830.555 702.005 978.014 424.425 841.938C395.312 827.666 368.014 810.894 342.772 792.035C601.555 863.333 912.497 733.23 1047 458.858C1181.5 184.486 1093.84 -140.875 879.038 -301.887C909.407 -293.485 939.384 -282.179 968.496 -267.908C1246.08 -131.831 1330.32 217.645 1180.09 524.1Z" stroke="url(#paint25_linear_69_859)" stroke-width="2.10657" stroke-miterlimit="10"/>
</g>
<g filter="url(#filter10_f_69_859)">
<path d="M1170.58 519.439C1020.35 825.894 678.332 978.199 400.752 842.123C371.64 827.851 344.342 811.079 319.1 792.22C577.883 863.518 922.003 737.889 1056.51 463.517C1191.01 189.146 1068.31 -151.92 853.502 -312.933C883.871 -304.53 913.848 -293.224 942.96 -278.953C1220.54 -142.877 1320.81 212.984 1170.58 519.439Z" fill="url(#paint26_linear_69_859)"/>
<path d="M1170.58 519.439C1020.35 825.894 678.332 978.199 400.752 842.123C371.64 827.851 344.342 811.079 319.1 792.22C577.883 863.518 922.003 737.889 1056.51 463.517C1191.01 189.146 1068.31 -151.92 853.502 -312.933C883.871 -304.53 913.848 -293.224 942.96 -278.953C1220.54 -142.877 1320.81 212.984 1170.58 519.439Z" stroke="url(#paint27_linear_69_859)" stroke-width="2.10657" stroke-miterlimit="10"/>
</g>
<g filter="url(#filter11_f_69_859)">
<path d="M1170.58 519.439C1020.35 825.894 678.332 978.199 400.752 842.123C371.64 827.851 344.342 811.079 319.1 792.22C577.883 863.518 922.003 737.889 1056.51 463.517C1191.01 189.146 1068.31 -151.92 853.502 -312.933C883.871 -304.53 913.848 -293.224 942.96 -278.953C1220.54 -142.877 1320.81 212.984 1170.58 519.439Z" fill="url(#paint28_linear_69_859)"/>
<path d="M1170.58 519.439C1020.35 825.894 678.332 978.199 400.752 842.123C371.64 827.851 344.342 811.079 319.1 792.22C577.883 863.518 922.003 737.889 1056.51 463.517C1191.01 189.146 1068.31 -151.92 853.502 -312.933C883.871 -304.53 913.848 -293.224 942.96 -278.953C1220.54 -142.877 1320.81 212.984 1170.58 519.439Z" stroke="url(#paint29_linear_69_859)" stroke-width="2.10657" stroke-miterlimit="10"/>
</g>
<g filter="url(#filter12_f_69_859)">
<path d="M1170.58 519.439C1020.35 825.894 678.332 978.199 400.752 842.123C371.64 827.851 344.342 811.079 319.1 792.22C577.883 863.518 922.003 737.889 1056.51 463.517C1191.01 189.146 1068.31 -151.92 853.502 -312.933C883.871 -304.53 913.848 -293.224 942.96 -278.953C1220.54 -142.877 1320.81 212.984 1170.58 519.439Z" fill="url(#paint30_linear_69_859)"/>
<path d="M1170.58 519.439C1020.35 825.894 678.332 978.199 400.752 842.123C371.64 827.851 344.342 811.079 319.1 792.22C577.883 863.518 922.003 737.889 1056.51 463.517C1191.01 189.146 1068.31 -151.92 853.502 -312.933C883.871 -304.53 913.848 -293.224 942.96 -278.953C1220.54 -142.877 1320.81 212.984 1170.58 519.439Z" stroke="url(#paint31_linear_69_859)" stroke-width="2.10657" stroke-miterlimit="10"/>
</g>
<g filter="url(#filter13_f_69_859)">
<path d="M1108.69 513.415C958.454 819.87 678.332 978.199 400.752 842.123C371.64 827.851 344.342 811.079 319.1 792.22C577.883 863.518 949.1 760.783 1087.4 478.663C1260.69 125.177 1068.31 -151.92 853.502 -312.933C883.871 -304.53 913.848 -293.224 942.96 -278.953C1220.54 -142.877 1258.92 206.96 1108.69 513.415Z" fill="url(#paint32_linear_69_859)"/>
<path d="M1108.69 513.415C958.454 819.87 678.332 978.199 400.752 842.123C371.64 827.851 344.342 811.079 319.1 792.22C577.883 863.518 949.1 760.783 1087.4 478.663C1260.69 125.177 1068.31 -151.92 853.502 -312.933C883.871 -304.53 913.848 -293.224 942.96 -278.953C1220.54 -142.877 1258.92 206.96 1108.69 513.415Z" stroke="url(#paint33_linear_69_859)" stroke-width="2.10657" stroke-miterlimit="10"/>
</g>
<g filter="url(#filter14_f_69_859)">
<path d="M1108.69 513.415C958.454 819.87 690.936 1038.17 413.356 902.097C384.244 887.825 321.137 772.732 295.894 753.873C554.678 825.171 949.1 760.783 1087.4 478.663C1260.69 125.178 1025.35 -134.952 810.549 -295.964C796.976 -268.278 898.844 -357.322 927.957 -343.05C1205.54 -206.974 1258.92 206.96 1108.69 513.415Z" fill="url(#paint34_linear_69_859)"/>
<path d="M1108.69 513.415C958.454 819.87 690.936 1038.17 413.356 902.097C384.244 887.825 321.137 772.732 295.894 753.873C554.678 825.171 949.1 760.783 1087.4 478.663C1260.69 125.178 1025.35 -134.952 810.549 -295.964C796.976 -268.278 898.844 -357.322 927.957 -343.05C1205.54 -206.974 1258.92 206.96 1108.69 513.415Z" stroke="url(#paint35_linear_69_859)" stroke-width="2.10657" stroke-miterlimit="10"/>
</g>
<g filter="url(#filter15_f_69_859)">
<path d="M1108.69 513.415C958.454 819.87 690.936 1038.17 413.356 902.097C384.244 887.825 321.137 772.732 295.894 753.873C554.678 825.171 949.1 760.783 1087.4 478.663C1260.69 125.178 1025.35 -134.952 810.549 -295.964C796.976 -268.278 898.844 -357.322 927.957 -343.05C1205.54 -206.974 1258.92 206.96 1108.69 513.415Z" fill="url(#paint36_linear_69_859)"/>
<path d="M1108.69 513.415C958.454 819.87 690.936 1038.17 413.356 902.097C384.244 887.825 321.137 772.732 295.894 753.873C554.678 825.171 949.1 760.783 1087.4 478.663C1260.69 125.178 1025.35 -134.952 810.549 -295.964C796.976 -268.278 898.844 -357.322 927.957 -343.05C1205.54 -206.974 1258.92 206.96 1108.69 513.415Z" stroke="url(#paint37_linear_69_859)" stroke-width="2.10657" stroke-miterlimit="10"/>
</g>
<g filter="url(#filter16_f_69_859)">
<path d="M1108.69 513.415C958.454 819.87 690.936 1038.17 413.356 902.097C384.244 887.825 321.137 772.732 295.894 753.873C554.678 825.171 949.1 760.783 1087.4 478.663C1260.69 125.178 1025.35 -134.952 810.549 -295.964C796.976 -268.278 898.844 -357.322 927.957 -343.05C1205.54 -206.974 1258.92 206.96 1108.69 513.415Z" fill="url(#paint38_linear_69_859)"/>
<path d="M1108.69 513.415C958.454 819.87 690.936 1038.17 413.356 902.097C384.244 887.825 321.137 772.732 295.894 753.873C554.678 825.171 949.1 760.783 1087.4 478.663C1260.69 125.178 1025.35 -134.952 810.549 -295.964C796.976 -268.278 898.844 -357.322 927.957 -343.05C1205.54 -206.974 1258.92 206.96 1108.69 513.415Z" stroke="url(#paint39_linear_69_859)" stroke-width="2.10657" stroke-miterlimit="10"/>
</g>
</g>
<g filter="url(#filter17_f_69_859)">
<mask id="mask2_69_859" style="mask-type:alpha" maskUnits="userSpaceOnUse" x="457" y="447" width="773" height="567">
<path opacity="0.8" d="M458.284 766.863L623.39 1012.39L958.559 909.361L1228.06 448.559L968.65 481.059L900.893 473.885L494.677 704.638L458.284 766.863Z" fill="url(#paint40_linear_69_859)" stroke="url(#paint41_linear_69_859)" stroke-width="1.32554"/>
</mask>
<g mask="url(#mask2_69_859)">
<g opacity="0.8">
<path d="M592.751 791.615C578.41 785.539 564.96 778.126 551.992 769.766C596.884 792.239 650.352 788.852 703.444 770.385C764.905 749.008 825.985 707.389 872.968 662.027C1005.51 534.224 1075.43 336.107 1001.74 152.51C1027.31 172.117 1047.39 201.582 1063.25 234.354C1079.5 267.93 1091.3 304.927 1100.04 338.237C1106.98 364.658 1111.99 388.739 1115.78 406.95C1116.77 411.699 1117.68 416.049 1118.51 419.937C1120.52 429.298 1122.14 436.06 1123.53 439.218C1123.88 440.004 1124.25 440.647 1124.66 441.046C1124.86 441.25 1125.13 441.432 1125.44 441.499C1125.78 441.571 1126.11 441.494 1126.38 441.319C1126.87 441.01 1127.21 440.387 1127.49 439.672C1127.75 439.001 1128 438.124 1128.24 437.045L1186.07 422.575C1183.93 437.981 1185.12 447.19 1187.68 453.216C1189.98 458.631 1193.37 461.418 1196.2 463.747C1196.59 464.071 1196.98 464.385 1197.34 464.697C1198.86 465.981 1200.08 467.186 1200.86 468.728C1201.62 470.253 1201.97 472.174 1201.58 474.933C1200.8 480.513 1197.05 489.338 1188.04 504.751C1186.02 508.209 1180.92 513.816 1173.43 521.071C1165.96 528.305 1156.17 537.121 1144.82 546.984C1122.11 566.709 1093.17 590.6 1064.11 614.356C1053.91 622.694 1043.7 631.016 1033.73 639.135C1015.31 654.144 997.733 668.458 982.685 680.9C971.091 690.486 960.992 698.963 953.153 705.793C945.365 712.579 939.772 717.768 937.173 720.806C829.957 809.974 699.73 837.206 592.752 791.615L592.751 791.615Z" fill="#FF73D8" stroke="url(#paint42_linear_69_859)" stroke-width="1.32554"/>
<g filter="url(#filter18_f_69_859)">
<path d="M1160.02 408.252C1150.74 472.014 1197.81 430.023 1161.77 491.644C1145.16 520.041 931.154 683.941 910.796 707.838C803.43 797.154 672.922 824.501 565.648 778.784C543.841 769.545 524.1 757.23 505.003 743.206C601.663 814.345 808.083 736.666 901.945 646.042C1034.88 517.864 1141.13 362.824 1066.1 178.917C1172.52 257.628 1092.38 463.141 1100.84 423.061L1160.02 408.252Z" fill="#FF73D8"/>
<path d="M565.906 778.174C550.72 771.74 536.532 763.807 522.859 754.836C571.089 778.819 638.12 775.218 704.708 755.922C780.215 734.041 855.385 691.917 902.405 646.519C1034.82 518.839 1141.05 364.242 1067.62 180.889C1118.77 220.296 1125.15 289.984 1119.54 345.469C1116.71 373.524 1110.82 397.871 1106.17 412.693C1105.02 416.366 1103.95 419.438 1103.03 421.831L1100.68 422.418L1100.27 422.519L1100.19 422.924C1099.92 424.187 1099.74 425.219 1099.64 426.027C1099.54 426.818 1099.5 427.449 1099.57 427.882C1099.59 428.077 1099.66 428.368 1099.86 428.587C1099.98 428.716 1100.15 428.819 1100.36 428.847C1100.56 428.873 1100.73 428.822 1100.85 428.765C1101.07 428.659 1101.26 428.472 1101.39 428.309C1101.54 428.131 1101.69 427.907 1101.85 427.65C1102.41 426.719 1103.15 425.127 1104.01 422.951L1159.22 409.134C1157.08 424.54 1158.28 433.749 1160.83 439.775C1163.13 445.19 1166.52 447.977 1169.35 450.306C1169.75 450.63 1170.13 450.945 1170.5 451.256C1172.01 452.54 1173.24 453.745 1174.01 455.288C1174.77 456.812 1175.12 458.733 1174.74 461.493C1173.96 467.072 1170.21 475.897 1161.2 491.31C1159.17 494.769 1154.08 500.375 1146.59 507.631C1139.12 514.865 1129.33 523.681 1117.97 533.544C1095.27 553.269 1066.33 577.16 1037.27 600.916C1027.07 609.253 1016.85 617.575 1006.89 625.693C988.462 640.702 970.889 655.017 955.841 667.459C944.247 677.045 934.147 685.523 926.308 692.353C918.52 699.138 912.927 704.327 910.329 707.365C803.113 796.533 672.886 823.766 565.908 778.175L565.906 778.174ZM1101.4 423.603L1102.42 423.348C1101.83 424.784 1101.32 425.888 1100.9 426.636C1100.92 426.501 1100.93 426.354 1100.95 426.194C1101.04 425.519 1101.19 424.659 1101.4 423.603Z" stroke="url(#paint43_linear_69_859)" stroke-width="1.32554"/>
</g>
<g filter="url(#filter19_f_69_859)">
<path d="M1160.02 408.252C1150.74 472.014 1197.81 430.023 1161.77 491.644C1145.16 520.041 931.154 683.941 910.796 707.838C803.43 797.154 672.922 824.501 565.648 778.784C543.841 769.545 524.1 757.23 505.003 743.206C601.663 814.345 808.083 736.666 901.945 646.042C1034.88 517.864 1141.13 362.824 1066.1 178.917C1172.52 257.628 1092.38 463.141 1100.84 423.061L1160.02 408.252Z" fill="#FF73D8"/>
<path d="M565.906 778.174C550.72 771.74 536.532 763.807 522.859 754.836C571.089 778.819 638.12 775.218 704.708 755.922C780.215 734.041 855.385 691.917 902.405 646.519C1034.82 518.839 1141.05 364.242 1067.62 180.889C1118.77 220.296 1125.15 289.984 1119.54 345.469C1116.71 373.524 1110.82 397.871 1106.17 412.693C1105.02 416.366 1103.95 419.438 1103.03 421.831L1100.68 422.418L1100.27 422.519L1100.19 422.924C1099.92 424.187 1099.74 425.219 1099.64 426.027C1099.54 426.818 1099.5 427.449 1099.57 427.882C1099.59 428.077 1099.66 428.368 1099.86 428.587C1099.98 428.716 1100.15 428.819 1100.36 428.847C1100.56 428.873 1100.73 428.822 1100.85 428.765C1101.07 428.659 1101.26 428.472 1101.39 428.309C1101.54 428.131 1101.69 427.907 1101.85 427.65C1102.41 426.719 1103.15 425.127 1104.01 422.951L1159.22 409.134C1157.08 424.54 1158.28 433.749 1160.83 439.775C1163.13 445.19 1166.52 447.977 1169.35 450.306C1169.75 450.63 1170.13 450.945 1170.5 451.256C1172.01 452.54 1173.24 453.745 1174.01 455.288C1174.77 456.812 1175.12 458.733 1174.74 461.493C1173.96 467.072 1170.21 475.897 1161.2 491.31C1159.17 494.769 1154.08 500.375 1146.59 507.631C1139.12 514.865 1129.33 523.681 1117.97 533.544C1095.27 553.269 1066.33 577.16 1037.27 600.916C1027.07 609.253 1016.85 617.575 1006.89 625.693C988.462 640.702 970.889 655.017 955.841 667.459C944.247 677.045 934.147 685.523 926.308 692.353C918.52 699.138 912.927 704.327 910.329 707.365C803.113 796.533 672.886 823.766 565.908 778.175L565.906 778.174ZM1101.4 423.603L1102.42 423.348C1101.83 424.784 1101.32 425.888 1100.9 426.636C1100.92 426.501 1100.93 426.354 1100.95 426.194C1101.04 425.519 1101.19 424.659 1101.4 423.603Z" stroke="url(#paint44_linear_69_859)" stroke-width="1.32554"/>
</g>
<g filter="url(#filter20_f_69_859)">
<path d="M1160.02 408.252C1150.74 472.014 1197.81 430.023 1161.77 491.644C1145.16 520.041 931.154 683.941 910.796 707.838C803.43 797.154 672.922 824.501 565.648 778.784C543.841 769.545 524.1 757.23 505.003 743.206C601.663 814.345 808.083 736.666 901.945 646.042C1034.88 517.864 1141.13 362.824 1066.1 178.917C1172.52 257.628 1092.38 463.141 1100.84 423.061L1160.02 408.252Z" fill="#FF73D8"/>
<path d="M565.906 778.174C550.72 771.74 536.532 763.807 522.859 754.836C571.089 778.819 638.12 775.218 704.708 755.922C780.215 734.041 855.385 691.917 902.405 646.519C1034.82 518.839 1141.05 364.242 1067.62 180.889C1118.77 220.296 1125.15 289.984 1119.54 345.469C1116.71 373.524 1110.82 397.871 1106.17 412.693C1105.02 416.366 1103.95 419.438 1103.03 421.831L1100.68 422.418L1100.27 422.519L1100.19 422.924C1099.92 424.187 1099.74 425.219 1099.64 426.027C1099.54 426.818 1099.5 427.449 1099.57 427.882C1099.59 428.077 1099.66 428.368 1099.86 428.587C1099.98 428.716 1100.15 428.819 1100.36 428.847C1100.56 428.873 1100.73 428.822 1100.85 428.765C1101.07 428.659 1101.26 428.472 1101.39 428.309C1101.54 428.131 1101.69 427.907 1101.85 427.65C1102.41 426.719 1103.15 425.127 1104.01 422.951L1159.22 409.134C1157.08 424.54 1158.28 433.749 1160.83 439.775C1163.13 445.19 1166.52 447.977 1169.35 450.306C1169.75 450.63 1170.13 450.945 1170.5 451.256C1172.01 452.54 1173.24 453.745 1174.01 455.288C1174.77 456.812 1175.12 458.733 1174.74 461.493C1173.96 467.072 1170.21 475.897 1161.2 491.31C1159.17 494.769 1154.08 500.375 1146.59 507.631C1139.12 514.865 1129.33 523.681 1117.97 533.544C1095.27 553.269 1066.33 577.16 1037.27 600.916C1027.07 609.253 1016.85 617.575 1006.89 625.693C988.462 640.702 970.889 655.017 955.841 667.459C944.247 677.045 934.147 685.523 926.308 692.353C918.52 699.138 912.927 704.327 910.329 707.365C803.113 796.533 672.886 823.766 565.908 778.175L565.906 778.174ZM1101.4 423.603L1102.42 423.348C1101.83 424.784 1101.32 425.888 1100.9 426.636C1100.92 426.501 1100.93 426.354 1100.95 426.194C1101.04 425.519 1101.19 424.659 1101.4 423.603Z" stroke="url(#paint45_linear_69_859)" stroke-width="1.32554"/>
</g>
<g filter="url(#filter21_f_69_859)">
<path d="M1160.02 408.252C1150.74 472.014 1197.81 430.023 1161.77 491.644C1145.16 520.041 931.154 683.941 910.796 707.838C803.43 797.154 672.922 824.501 565.648 778.784C543.841 769.545 524.1 757.23 505.003 743.206C601.663 814.345 804.258 766.019 898.12 675.395C1031.05 547.217 1141.13 362.824 1066.1 178.917C1172.52 257.628 1092.38 463.141 1100.84 423.061L1160.02 408.252Z" fill="#FF73D8"/>
<path d="M565.906 778.174C551.594 772.11 538.168 764.715 525.224 756.374C573.021 780.619 638.068 783.22 702.738 770.612C777.296 756.077 851.537 721.293 898.58 675.872C1031.02 548.171 1141.02 364.461 1067.61 180.888C1118.77 220.295 1125.15 289.983 1119.54 345.469C1116.71 373.524 1110.82 397.871 1106.17 412.693C1105.02 416.366 1103.95 419.438 1103.03 421.831L1100.68 422.418L1100.27 422.519L1100.19 422.924C1099.92 424.187 1099.74 425.219 1099.64 426.027C1099.54 426.818 1099.5 427.449 1099.57 427.882C1099.59 428.077 1099.66 428.368 1099.86 428.587C1099.98 428.716 1100.15 428.819 1100.36 428.847C1100.56 428.873 1100.73 428.822 1100.85 428.765C1101.07 428.659 1101.26 428.472 1101.39 428.309C1101.54 428.131 1101.69 427.907 1101.85 427.65C1102.41 426.719 1103.15 425.127 1104.01 422.951L1159.22 409.134C1157.08 424.54 1158.28 433.749 1160.83 439.775C1163.13 445.19 1166.52 447.977 1169.35 450.306C1169.75 450.63 1170.13 450.945 1170.5 451.256C1172.01 452.54 1173.24 453.745 1174.01 455.288C1174.77 456.812 1175.12 458.733 1174.74 461.493C1173.96 467.072 1170.21 475.897 1161.2 491.31C1159.17 494.769 1154.08 500.375 1146.59 507.631C1139.12 514.865 1129.33 523.681 1117.97 533.544C1095.27 553.269 1066.33 577.16 1037.27 600.916C1027.07 609.253 1016.85 617.575 1006.89 625.693C988.462 640.702 970.889 655.017 955.841 667.459C944.247 677.045 934.147 685.523 926.308 692.353C918.52 699.138 912.927 704.327 910.329 707.365C803.113 796.533 672.886 823.766 565.908 778.175L565.906 778.174ZM1101.4 423.603L1102.42 423.348C1101.83 424.784 1101.32 425.888 1100.9 426.636C1100.92 426.501 1100.93 426.354 1100.95 426.194C1101.04 425.519 1101.19 424.659 1101.4 423.603Z" stroke="url(#paint46_linear_69_859)" stroke-width="1.32554"/>
</g>
<g filter="url(#filter22_f_69_859)">
<path d="M1160.02 408.252C1150.74 472.013 1197.81 430.023 1161.77 491.644C1145.16 520.041 931.154 683.941 910.796 707.838C803.43 797.153 672.922 824.501 565.648 778.784C543.841 769.545 514.937 758.841 495.841 744.816C592.501 815.956 800.135 771.507 893.997 680.883C1026.93 552.705 1141.13 362.824 1066.1 178.917C1172.52 257.628 1092.38 463.141 1100.84 423.061L1160.02 408.252Z" fill="#FF73D8"/>
<path d="M565.908 778.174L565.906 778.174C562.278 776.637 558.459 775.061 554.526 773.438C551.809 772.317 549.039 771.174 546.239 770.005C590.026 783.249 643.177 783.629 696.085 774.163C771.9 760.599 847.407 726.787 894.457 681.36C960.966 617.23 1022.81 537.642 1058.65 451.052C1094.19 365.149 1104.15 272.324 1067.61 180.888C1118.77 220.294 1125.15 289.983 1119.54 345.469C1116.71 373.524 1110.82 397.871 1106.17 412.693C1105.02 416.365 1103.95 419.438 1103.02 421.831L1100.68 422.418L1100.27 422.519L1100.19 422.924C1099.92 424.187 1099.74 425.218 1099.64 426.027C1099.54 426.818 1099.5 427.449 1099.57 427.882C1099.59 428.077 1099.66 428.368 1099.86 428.587C1099.98 428.716 1100.15 428.819 1100.36 428.847C1100.56 428.872 1100.73 428.822 1100.85 428.765C1101.07 428.659 1101.26 428.472 1101.39 428.309C1101.54 428.131 1101.69 427.907 1101.85 427.65C1102.41 426.719 1103.15 425.127 1104.01 422.951L1159.22 409.134C1157.08 424.54 1158.28 433.749 1160.83 439.775C1163.13 445.19 1166.52 447.977 1169.35 450.306C1169.75 450.63 1170.13 450.945 1170.5 451.256C1172.01 452.54 1173.24 453.745 1174.01 455.288C1174.77 456.812 1175.12 458.733 1174.74 461.493C1173.96 467.072 1170.21 475.897 1161.19 491.31C1159.17 494.769 1154.08 500.375 1146.59 507.631C1139.12 514.864 1129.33 523.681 1117.97 533.544C1095.27 553.269 1066.33 577.16 1037.27 600.915C1027.07 609.253 1016.85 617.575 1006.89 625.693C988.461 640.702 970.888 655.017 955.841 667.459C944.247 677.045 934.147 685.522 926.308 692.352C918.52 699.138 912.927 704.327 910.329 707.365C803.113 796.533 672.886 823.765 565.908 778.174ZM1101.4 423.603L1102.42 423.348C1101.83 424.784 1101.32 425.888 1100.9 426.635C1100.92 426.5 1100.93 426.354 1100.95 426.194C1101.04 425.519 1101.19 424.659 1101.4 423.603Z" stroke="url(#paint47_linear_69_859)" stroke-width="1.32554"/>
</g>
<g filter="url(#filter23_f_69_859)">
<path d="M1186.86 421.693C1177.58 485.454 1224.65 443.464 1188.61 505.085C1172 533.482 953.766 685.879 933.408 709.776C826.042 799.091 699.766 837.942 592.492 792.225C570.686 782.986 550.944 770.671 531.847 756.647C628.507 827.786 785.451 756.154 879.313 665.53C1012.24 537.351 1118.8 359.922 1043.78 176.015C1150.19 254.726 1119.22 476.582 1127.68 436.502L1186.86 421.693Z" fill="#FF73D8"/>
<path d="M592.751 791.615C578.429 785.547 564.996 778.146 552.045 769.799C597.311 792.509 652.259 789.989 706.833 772.38C769.995 752.001 832.781 711.378 879.773 666.007C1012.21 538.303 1118.72 361.5 1045.29 177.983C1096.8 217.529 1115.27 291.329 1121.8 350.877C1125.11 380.987 1125.36 407.393 1125.3 423.776C1125.3 425.911 1125.29 427.88 1125.27 429.667C1125.24 434.713 1125.22 438.307 1125.35 440.092C1125.37 440.399 1125.4 440.667 1125.43 440.886C1125.47 441.088 1125.51 441.31 1125.6 441.488C1125.64 441.571 1125.73 441.73 1125.9 441.844C1126.13 441.992 1126.4 441.998 1126.62 441.89C1126.8 441.807 1126.9 441.675 1126.96 441.6C1127.02 441.514 1127.07 441.419 1127.11 441.33C1127.28 440.986 1127.45 440.419 1127.64 439.669C1127.82 438.987 1128.02 438.114 1128.24 437.044L1186.07 422.575C1183.93 437.981 1185.12 447.19 1187.68 453.216C1189.98 458.631 1193.37 461.418 1196.2 463.747C1196.59 464.071 1196.98 464.385 1197.34 464.697C1198.86 465.981 1200.08 467.186 1200.86 468.728C1201.62 470.253 1201.97 472.174 1201.58 474.933C1200.8 480.513 1197.05 489.338 1188.04 504.751C1186.02 508.2 1180.87 513.623 1173.27 520.564C1165.68 527.482 1155.73 535.848 1144.18 545.172C1121.07 563.818 1091.61 586.271 1062.02 608.589C1052.97 615.41 1043.92 622.22 1035.03 628.904C1014.84 644.083 995.508 658.616 979.133 671.179C967.34 680.226 957.074 688.255 949.118 694.771C941.216 701.243 935.548 706.258 932.941 709.302C825.681 798.511 699.689 837.189 592.752 791.615L592.751 791.615Z" stroke="url(#paint48_linear_69_859)" stroke-width="1.32554"/>
</g>
<g filter="url(#filter24_f_69_859)">
<path d="M1173.02 420.373C1163.74 484.134 1210.81 442.143 1174.77 503.765C1158.16 532.161 939.927 684.558 919.569 708.455C812.203 797.771 685.927 836.622 578.653 790.905C556.847 781.665 537.105 769.35 518.008 755.326C614.669 826.466 781.14 760.406 875.002 669.782C1007.93 541.603 1114.49 364.174 1039.47 180.267C1145.88 258.978 1105.38 475.261 1113.84 435.182L1173.02 420.373Z" fill="#FF73D8"/>
<path d="M578.912 790.294C564.617 784.238 551.207 776.854 538.278 768.526C584.069 791.565 641.091 790.258 697.739 773.852C763.281 754.87 828.458 715.641 875.462 670.259C1007.9 542.555 1114.41 365.752 1040.98 182.235C1092.42 221.742 1108.55 294.154 1112.73 352.318C1114.84 381.728 1113.9 407.435 1112.96 423.289C1112.7 427.535 1112.45 431.093 1112.25 433.821C1112.09 436.169 1111.96 437.904 1111.92 438.937C1111.91 439.221 1111.9 439.461 1111.9 439.653C1111.91 439.827 1111.91 440.015 1111.95 440.162C1111.95 440.203 1111.97 440.264 1112 440.331C1112.02 440.385 1112.09 440.518 1112.24 440.623C1112.43 440.76 1112.67 440.787 1112.88 440.706C1113.04 440.643 1113.14 440.536 1113.17 440.491C1113.25 440.395 1113.3 440.287 1113.33 440.23C1113.36 440.159 1113.39 440.077 1113.41 439.993C1113.61 439.388 1113.93 437.974 1114.41 435.724L1172.23 421.255C1170.09 436.661 1171.28 445.87 1173.84 451.895C1176.14 457.31 1179.53 460.097 1182.36 462.426C1182.75 462.75 1183.14 463.065 1183.5 463.377C1185.02 464.66 1186.25 465.865 1187.02 467.408C1187.78 468.933 1188.13 470.853 1187.74 473.613C1186.96 479.192 1183.21 488.017 1174.2 503.43C1172.18 506.879 1167.03 512.302 1159.43 519.243C1151.84 526.161 1141.89 534.528 1130.34 543.851C1107.23 562.497 1077.77 584.95 1048.18 607.268C1039.13 614.09 1030.08 620.899 1021.19 627.583C1001 642.763 981.669 657.296 965.294 669.858C953.502 678.905 943.235 686.934 935.279 693.451C927.377 699.922 921.709 704.937 919.102 707.982C811.842 797.191 685.85 835.868 578.913 790.295L578.912 790.294ZM1112.1 439.722C1112.1 439.721 1112.1 439.72 1112.1 439.718C1112.1 439.725 1112.1 439.726 1112.1 439.722Z" stroke="url(#paint49_linear_69_859)" stroke-width="1.32554"/>
</g>
<g filter="url(#filter25_f_69_859)">
<path d="M1166.82 412.232C1157.54 475.993 1204.61 434.003 1168.57 495.624C1151.96 524.021 933.726 676.418 913.369 700.315C806.002 789.63 679.727 828.481 572.453 782.764C550.646 773.525 530.904 761.21 511.808 747.186C608.468 818.325 800.422 764.912 894.284 674.288C1027.22 546.11 1133.77 368.68 1058.75 184.774C1165.16 263.484 1099.18 467.121 1107.64 427.041L1166.82 412.232Z" fill="#FF73D8"/>
<path d="M572.711 782.154C558.409 776.094 544.992 768.705 532.057 760.372C579.269 784.268 641.941 785.744 704.238 772.046C776.141 756.235 847.711 720.176 894.744 674.765C1027.18 547.062 1133.69 370.259 1060.26 186.743C1111.53 226.154 1121.38 295.408 1119.27 350.428C1118.2 378.25 1114.08 402.366 1110.75 417.018C1109.92 420.699 1109.13 423.772 1108.46 426.153L1107.48 426.398L1107.08 426.499L1106.99 426.904C1106.47 429.398 1106.21 431.015 1106.21 431.783C1106.2 431.956 1106.21 432.192 1106.29 432.39C1106.32 432.483 1106.44 432.726 1106.73 432.831C1107.05 432.947 1107.3 432.805 1107.41 432.731C1107.52 432.652 1107.6 432.555 1107.64 432.489C1107.67 432.459 1107.69 432.427 1107.71 432.395C1107.74 432.348 1107.77 432.298 1107.79 432.248C1107.89 432.081 1107.99 431.869 1108.09 431.622C1108.45 430.755 1108.94 429.276 1109.53 427.253L1166.03 413.114C1163.89 428.52 1165.08 437.729 1167.64 443.755C1169.94 449.17 1173.33 451.957 1176.16 454.286C1176.55 454.61 1176.94 454.924 1177.3 455.236C1178.82 456.52 1180.04 457.725 1180.82 459.267C1181.58 460.792 1181.93 462.713 1181.54 465.473C1180.76 471.052 1177.01 479.877 1168 495.29C1165.98 498.739 1160.83 504.162 1153.23 511.103C1145.64 518.021 1135.69 526.387 1124.14 535.711C1101.03 554.357 1071.57 576.81 1041.98 599.128C1032.93 605.95 1023.88 612.759 1014.99 619.443C994.797 634.623 975.469 649.156 959.094 661.718C947.301 670.765 937.035 678.794 929.078 685.31C921.176 691.782 915.508 696.797 912.901 699.841C805.642 789.05 679.65 827.728 572.712 782.154L572.711 782.154Z" stroke="url(#paint50_linear_69_859)" stroke-width="1.32554"/>
</g>
<g filter="url(#filter26_f_69_859)">
<path d="M1166.82 412.231C1157.54 475.992 1204.61 434.002 1168.57 495.623C1151.96 524.02 947.289 661.576 926.931 685.473C819.565 774.789 658.805 826.489 551.531 780.771C529.724 771.532 530.905 761.209 511.808 747.185C608.468 818.324 768.814 814.127 862.676 723.503C995.608 595.325 1153.15 510.919 1078.13 327.012C1184.54 405.723 1099.18 467.12 1107.64 427.04L1166.82 412.231Z" fill="#FF73D8"/>
<path d="M926.464 685C901.459 705.796 873.554 724.55 844.105 740.503C850.703 735.355 857.058 729.848 863.136 723.98C886.68 701.279 910.989 679.957 934.654 659.2C944.381 650.667 954 642.231 963.412 633.833C995.707 605.017 1025.56 576.669 1048.91 546.562C1072.26 516.45 1089.14 484.554 1095.46 448.639C1101.68 413.292 1097.67 374.105 1079.63 328.96C1130.61 367.397 1135.69 401.365 1129.12 420.983L1107.48 426.397L1107.08 426.498L1106.99 426.903C1105.92 431.971 1106.29 435.615 1107.76 437.842C1109.27 440.148 1111.83 440.754 1114.59 440.029C1117.33 439.311 1120.36 437.285 1123.14 434.201C1125.86 431.169 1128.37 427.079 1130.14 422.095L1166.03 413.113C1163.89 428.519 1165.08 437.728 1167.64 443.754C1169.94 449.169 1173.33 451.956 1176.16 454.285C1176.55 454.609 1176.94 454.923 1177.3 455.235C1178.82 456.519 1180.04 457.724 1180.82 459.266C1181.58 460.791 1181.93 462.712 1181.54 465.471C1180.76 471.051 1177.01 479.876 1168 495.289C1165.98 498.737 1161.05 503.929 1153.81 510.462C1146.6 516.973 1137.18 524.759 1126.26 533.387C1104.43 550.641 1076.66 571.238 1048.77 591.701C1040.6 597.691 1032.43 603.669 1024.38 609.548C1004.96 623.752 986.325 637.377 970.544 649.19C959.386 657.542 949.649 664.992 942.062 671.103C934.528 677.172 929.07 681.956 926.464 685ZM1108.21 427.582L1128.58 422.484C1126.89 426.936 1124.6 430.587 1122.15 433.314C1119.49 436.278 1116.67 438.115 1114.26 438.747C1111.87 439.372 1109.98 438.814 1108.86 437.114C1107.73 435.383 1107.27 432.305 1108.21 427.582ZM528.778 762.576C526.746 760.192 524.604 757.679 521.962 755.022C560.578 780.17 607.798 794.279 656.392 796.733C618.727 798.489 582.979 793.453 551.791 780.162L551.789 780.161C540.999 775.589 535.92 770.768 531.151 765.335C530.361 764.435 529.578 763.516 528.778 762.576ZM828.674 750.017C786.234 778.371 735.595 793.303 684.915 795.507C702.893 793.152 721.135 789.399 739.372 784.399C769.543 776.127 799.715 764.439 828.674 750.017Z" stroke="url(#paint51_linear_69_859)" stroke-width="1.32554"/>
</g>
<g filter="url(#filter27_f_69_859)">
<path d="M1166.82 412.231C1157.54 475.992 1204.61 434.002 1168.57 495.623C1151.96 524.02 916.391 678.489 896.033 702.386C788.667 791.702 658.805 826.489 551.531 780.771C529.724 771.532 530.905 761.209 511.808 747.185C608.468 818.324 763.489 787.315 857.351 696.69C990.283 568.512 1153.15 510.919 1078.13 327.012C1184.54 405.723 1099.18 467.12 1107.64 427.04L1166.82 412.231Z" fill="#FF73D8"/>
<path d="M528.778 762.576C526.686 760.121 524.478 757.53 521.726 754.786C568.686 784.716 627.39 792.753 685.736 783.253C748.436 773.044 810.781 742.575 857.811 697.167C888.344 667.726 920.459 642.011 950.929 617.612C953.597 615.476 956.252 613.35 958.893 611.232C991.678 584.938 1022.2 559.943 1046.22 533.192C1070.24 506.434 1087.8 477.885 1094.62 444.467C1101.34 411.58 1097.66 374.048 1079.63 328.961C1130.61 367.397 1135.69 401.365 1129.12 420.983L1107.48 426.397L1107.08 426.498L1106.99 426.903C1105.92 431.971 1106.29 435.615 1107.76 437.842C1109.27 440.148 1111.83 440.754 1114.59 440.029C1117.33 439.311 1120.36 437.285 1123.14 434.201C1125.86 431.169 1128.37 427.079 1130.14 422.095L1166.03 413.113C1163.89 428.519 1165.08 437.728 1167.64 443.754C1169.94 449.169 1173.33 451.956 1176.16 454.285C1176.55 454.609 1176.94 454.923 1177.3 455.235C1178.82 456.519 1180.04 457.724 1180.82 459.266C1181.58 460.791 1181.93 462.712 1181.54 465.471C1180.76 471.051 1177.01 479.876 1168 495.289C1167 496.991 1165.16 499.211 1162.53 501.898C1159.9 504.578 1156.52 507.692 1152.49 511.179C1144.44 518.154 1133.81 526.601 1121.44 536.022C1096.71 554.863 1065.08 577.575 1033.33 600.152C1024.44 606.467 1015.55 612.772 1006.79 618.978C984.257 634.957 962.639 650.283 944.481 663.455C931.876 672.599 920.931 680.709 912.5 687.283C904.129 693.809 898.182 698.86 895.566 701.913C788.323 791.105 658.744 825.742 551.791 780.162L551.789 780.161C540.999 775.589 535.92 770.768 531.151 765.335C530.361 764.435 529.578 763.516 528.778 762.576ZM1108.21 427.582L1128.58 422.484C1126.89 426.936 1124.6 430.587 1122.15 433.314C1119.49 436.278 1116.67 438.115 1114.26 438.747C1111.87 439.372 1109.98 438.814 1108.86 437.114C1107.73 435.383 1107.27 432.305 1108.21 427.582Z" stroke="url(#paint52_linear_69_859)" stroke-width="1.32554"/>
</g>
</g>
</g>
</g>
<mask id="mask3_69_859" style="mask-type:alpha" maskUnits="userSpaceOnUse" x="-392" y="-67" width="908" height="940">
<rect x="34.7139" y="872.811" width="546.832" height="766.201" transform="rotate(-141.164 34.7139 872.811)" fill="url(#paint53_linear_69_859)"/>
</mask>
<g mask="url(#mask3_69_859)">
<path d="M-102.502 284.808C0.332195 157.072 177.517 129.027 293.217 222.172C305.352 231.942 316.371 242.69 326.207 254.2C212.462 193.404 60.8884 227.863 -31.1803 342.226C-123.249 456.589 -124.511 611.976 -40.8719 710.166C-54.2162 703.015 -67.0698 694.545 -79.2045 684.776C-194.905 591.63 -205.337 412.544 -102.502 284.808Z" fill="url(#paint54_linear_69_859)"/>
<g filter="url(#filter28_f_69_859)">
<path d="M-94.5777 291.188C8.25687 163.452 177.517 129.027 293.217 222.172C305.352 231.942 316.371 242.69 326.207 254.2C212.462 193.404 52.9637 221.483 -39.105 335.846C-131.174 450.209 -124.511 611.976 -40.8719 710.166C-54.2162 703.015 -67.0698 694.545 -79.2045 684.776C-194.905 591.63 -197.412 418.923 -94.5777 291.188Z" fill="url(#paint55_linear_69_859)"/>
</g>
<g filter="url(#filter29_f_69_859)">
<path d="M-90.6155 294.377C12.2191 166.642 188.631 131.445 304.332 224.59C316.466 234.359 327.486 245.108 337.321 256.618C223.577 195.822 49.0013 218.293 -43.0674 332.656C-135.136 447.019 -113.712 619.854 -30.0721 718.044C-43.4164 710.893 -56.27 702.423 -68.4047 692.654C-184.105 599.508 -193.45 422.113 -90.6155 294.377Z" fill="url(#paint56_linear_69_859)"/>
</g>
<g filter="url(#filter30_f_69_859)">
<path d="M-90.6155 294.377C12.2191 166.642 188.631 131.445 304.332 224.59C316.466 234.359 327.486 245.108 337.321 256.618C223.577 195.822 49.0013 218.293 -43.0674 332.656C-135.136 447.019 -113.712 619.854 -30.0721 718.044C-43.4164 710.893 -56.27 702.423 -68.4047 692.654C-184.105 599.508 -193.45 422.113 -90.6155 294.377Z" fill="url(#paint57_linear_69_859)"/>
</g>
<g filter="url(#filter31_f_69_859)">
<path d="M-90.6155 294.377C12.2191 166.642 188.631 131.445 304.332 224.59C316.466 234.359 327.486 245.108 337.321 256.618C223.577 195.822 49.0013 218.293 -43.0674 332.656C-135.136 447.019 -113.712 619.854 -30.0721 718.044C-43.4164 710.893 -56.27 702.423 -68.4047 692.654C-184.105 599.508 -193.45 422.113 -90.6155 294.377Z" fill="url(#paint58_linear_69_859)"/>
</g>
<g filter="url(#filter32_f_69_859)">
<path d="M-62.2434 303.75C40.5912 176.014 188.631 131.445 304.332 224.59C316.466 234.359 327.486 245.108 337.321 256.618C223.577 195.822 38.7238 204.696 -55.945 322.289C-174.561 469.628 -113.712 619.854 -30.0721 718.044C-43.4164 710.893 -56.27 702.423 -68.4047 692.654C-184.105 599.508 -165.078 431.485 -62.2434 303.75Z" fill="url(#paint59_linear_69_859)"/>
</g>
<g filter="url(#filter33_f_69_859)">
<path d="M-62.2433 303.75C40.5913 176.014 189.07 102.002 304.77 195.148C316.905 204.917 334.305 265.536 344.14 277.046C230.396 216.25 38.7239 204.696 -55.9449 322.289C-174.561 469.628 -91.7846 616.446 -8.14515 714.636C1.14546 703.096 -56.0196 734.052 -68.1543 724.283C-183.855 631.138 -165.078 431.486 -62.2433 303.75Z" fill="url(#paint60_linear_69_859)"/>
</g>
<g filter="url(#filter34_f_69_859)">
<path d="M-62.2433 303.75C40.5913 176.014 189.07 102.002 304.77 195.148C316.905 204.917 334.305 265.536 344.14 277.046C230.396 216.25 38.7239 204.696 -55.9449 322.289C-174.561 469.628 -91.7846 616.446 -8.14515 714.636C1.14546 703.096 -56.0196 734.052 -68.1543 724.283C-183.855 631.138 -165.078 431.486 -62.2433 303.75Z" fill="url(#paint61_linear_69_859)"/>
</g>
<g filter="url(#filter35_f_69_859)">
<path d="M-62.2433 303.75C40.5913 176.014 189.07 102.002 304.77 195.148C316.905 204.917 334.305 265.536 344.14 277.046C230.396 216.25 38.7239 204.696 -55.9449 322.289C-174.561 469.628 -91.7846 616.446 -8.14515 714.636C1.14546 703.096 -56.0196 734.052 -68.1543 724.283C-183.855 631.138 -165.078 431.486 -62.2433 303.75Z" fill="url(#paint62_linear_69_859)"/>
</g>
</g>
<g filter="url(#filter36_f_69_859)">
<mask id="mask4_69_859" style="mask-type:alpha" maskUnits="userSpaceOnUse" x="-126" y="121" width="396" height="224">
<path opacity="0.8" d="M269.405 253.776L217.999 121.233L50.0102 134.06L-125.056 321.516L-0.0341675 333.73L30.9632 344.262L245.764 279.09L269.405 253.776Z" fill="url(#paint63_linear_69_859)"/>
</mask>
<g mask="url(#mask4_69_859)">
<g opacity="0.8">
<path d="M-108.589 338.468C-97.4919 309.566 -123.996 324.266 -100.585 299.198C-89.7968 287.646 27.8451 233.471 39.9149 224.425C99.6856 193.924 163.746 194.914 209.187 227.691C218.429 234.328 226.379 242.189 233.846 250.782C196.069 207.213 117.702 226.767 64.1221 259.31C-11.7424 305.321 -65.5074 391.167 -49.8028 485.299C-91.3493 437.15 -71.0781 319.899 -79.2846 337.789L-108.589 338.468Z" fill="#FF73D8"/>
<g filter="url(#filter37_f_69_859)">
<path d="M-97.4298 347.607C-86.3327 318.706 -112.837 333.406 -89.4259 308.338C-78.6377 296.786 39.0043 242.611 51.0741 233.564C110.845 203.063 174.905 204.054 220.346 236.83C229.589 243.468 237.538 251.328 245.005 259.922C207.228 216.353 102.264 230.921 48.6843 263.464C-27.1803 309.475 -93.3816 370.898 -77.6771 465.03C-119.224 416.88 -59.9189 329.039 -68.1254 346.928L-97.4298 347.607Z" fill="#FF73D8"/>
</g>
<g filter="url(#filter38_f_69_859)">
<path d="M-97.4298 347.607C-86.3327 318.706 -112.837 333.406 -89.4259 308.338C-78.6377 296.786 39.0043 242.611 51.0741 233.564C110.845 203.063 174.905 204.054 220.346 236.83C229.589 243.468 237.538 251.328 245.005 259.922C207.228 216.353 102.264 230.921 48.6843 263.464C-27.1803 309.475 -93.3816 370.898 -77.6771 465.03C-119.224 416.88 -59.9189 329.039 -68.1254 346.928L-97.4298 347.607Z" fill="#FF73D8"/>
</g>
<g filter="url(#filter39_f_69_859)">
<path d="M-97.4298 347.607C-86.3327 318.706 -112.837 333.406 -89.4259 308.338C-78.6377 296.786 39.0043 242.611 51.0741 233.564C110.845 203.063 174.905 204.054 220.346 236.83C229.589 243.468 237.538 251.328 245.005 259.922C207.228 216.353 102.264 230.921 48.6843 263.464C-27.1803 309.475 -93.3816 370.898 -77.6771 465.03C-119.224 416.88 -59.9189 329.039 -68.1254 346.928L-97.4298 347.607Z" fill="#FF73D8"/>
</g>
<g filter="url(#filter40_f_69_859)">
<path d="M-97.4298 347.607C-86.3327 318.706 -112.837 333.406 -89.4259 308.338C-78.6377 296.786 39.0043 242.611 51.0741 233.564C110.845 203.063 174.905 204.054 220.346 236.83C229.589 243.468 237.538 251.328 245.005 259.922C207.228 216.353 107.162 217.568 53.5825 250.111C-22.2821 296.122 -93.3816 370.898 -77.6771 465.03C-119.224 416.88 -59.9189 329.039 -68.1254 346.928L-97.4298 347.607Z" fill="#FF73D8"/>
</g>
<g filter="url(#filter41_f_69_859)">
<path d="M-97.4298 347.607C-86.3327 318.706 -112.837 333.406 -89.426 308.338C-78.6377 296.786 39.0042 242.611 51.074 233.565C110.845 203.063 174.905 204.054 220.346 236.831C229.589 243.468 242.003 251.543 249.469 260.136C211.693 216.568 109.675 215.432 56.0955 247.975C-19.769 293.986 -93.3816 370.898 -77.6771 465.03C-119.224 416.881 -59.9189 329.039 -68.1254 346.928L-97.4298 347.607Z" fill="#FF73D8"/>
</g>
<g filter="url(#filter42_f_69_859)">
<path d="M-108.589 338.468C-97.4919 309.566 -123.996 324.266 -100.585 299.198C-89.7968 287.646 28.6116 239.31 40.6814 230.264C100.452 199.763 163.746 194.914 209.187 227.691C218.429 234.328 226.379 242.189 233.846 250.782C196.069 207.213 114.933 224.181 61.3537 256.725C-14.5109 302.735 -83.2256 374.62 -67.5211 468.752C-109.068 420.602 -71.0781 319.899 -79.2846 337.789L-108.589 338.468Z" fill="#FF73D8"/>
</g>
<g filter="url(#filter43_f_69_859)">
<path d="M-102.243 340.551C-91.1457 311.649 -117.65 326.349 -94.2389 301.281C-83.4506 289.73 34.9578 241.393 47.0276 232.347C106.798 201.846 170.092 196.997 215.533 229.774C224.776 236.412 232.725 244.272 240.192 252.865C202.415 209.297 117.404 222.645 63.824 255.188C-12.0406 301.199 -80.7553 373.083 -65.0508 467.215C-106.597 419.066 -64.7319 321.982 -72.9384 339.872L-102.243 340.551Z" fill="#FF73D8"/>
</g>
<g filter="url(#filter44_f_69_859)">
<path d="M-100.198 345.022C-89.1008 316.12 -115.605 330.82 -92.194 305.752C-81.4057 294.201 37.0027 245.864 49.0725 236.818C108.843 206.317 172.137 201.468 217.578 234.245C226.821 240.882 234.77 248.743 242.237 257.336C204.46 213.768 108.843 218.492 55.2635 251.036C-20.6011 297.046 -89.3158 368.931 -73.6113 463.062C-115.158 414.913 -62.6869 326.453 -70.8935 344.343L-100.198 345.022Z" fill="#FF73D8"/>
</g>
<g filter="url(#filter45_f_69_859)">
<path d="M-100.198 345.023C-89.1013 316.121 -115.605 330.821 -92.1945 305.753C-81.4062 294.201 29.0757 251.386 41.1454 242.339C100.916 211.838 181.732 204.616 227.172 237.393C236.415 244.03 234.77 248.744 242.236 257.337C204.46 213.768 128.864 198.77 75.2845 231.314C-0.580089 277.324 -83.3483 300.216 -67.6438 394.348C-109.19 346.199 -62.6874 326.454 -70.894 344.343L-100.198 345.023Z" fill="#FF73D8"/>
</g>
<g filter="url(#filter46_f_69_859)">
<path d="M-100.198 345.023C-89.1013 316.121 -115.605 330.821 -92.1945 305.753C-81.4062 294.201 45.3466 246.728 57.4163 237.682C117.187 207.18 181.732 204.616 227.172 237.393C236.415 244.03 234.77 248.744 242.236 257.337C204.46 213.768 128.523 211.9 74.9432 244.444C-0.921304 290.455 -83.3483 300.216 -67.6438 394.348C-109.19 346.199 -62.6874 326.454 -70.894 344.343L-100.198 345.023Z" fill="#FF73D8"/>
</g>
</g>
</g>
</g>
<defs>
<filter id="filter0_f_69_859" x="-185.406" y="-429.131" width="1238.06" height="929.843" filterUnits="userSpaceOnUse" color-interpolation-filters="sRGB">
<feFlood flood-opacity="0" result="BackgroundImageFix"/>
<feBlend mode="normal" in="SourceGraphic" in2="BackgroundImageFix" result="shape"/>
<feGaussianBlur stdDeviation="8.09183" result="effect1_foregroundBlur_69_859"/>
</filter>
<filter id="filter1_f_69_859" x="-227.946" y="-448.362" width="1313.23" height="1005.09" filterUnits="userSpaceOnUse" color-interpolation-filters="sRGB">
<feFlood flood-opacity="0" result="BackgroundImageFix"/>
<feBlend mode="normal" in="SourceGraphic" in2="BackgroundImageFix" result="shape"/>
<feGaussianBlur stdDeviation="24.2755" result="effect1_foregroundBlur_69_859"/>
</filter>
<filter id="filter2_f_69_859" x="-249.525" y="-469.94" width="1356.38" height="1048.25" filterUnits="userSpaceOnUse" color-interpolation-filters="sRGB">
<feFlood flood-opacity="0" result="BackgroundImageFix"/>
<feBlend mode="normal" in="SourceGraphic" in2="BackgroundImageFix" result="shape"/>
<feGaussianBlur stdDeviation="35.0646" result="effect1_foregroundBlur_69_859"/>
</filter>
<filter id="filter3_f_69_859" x="-249.525" y="-469.94" width="1356.38" height="1048.25" filterUnits="userSpaceOnUse" color-interpolation-filters="sRGB">
<feFlood flood-opacity="0" result="BackgroundImageFix"/>
<feBlend mode="normal" in="SourceGraphic" in2="BackgroundImageFix" result="shape"/>
<feGaussianBlur stdDeviation="35.0646" result="effect1_foregroundBlur_69_859"/>
</filter>
<filter id="filter4_f_69_859" x="-346.627" y="-520.12" width="1550.05" height="1195.53" filterUnits="userSpaceOnUse" color-interpolation-filters="sRGB">
<feFlood flood-opacity="0" result="BackgroundImageFix"/>
<feBlend mode="normal" in="SourceGraphic" in2="BackgroundImageFix" result="shape"/>
<feGaussianBlur stdDeviation="83.6156" result="effect1_foregroundBlur_69_859"/>
</filter>
<filter id="filter5_f_69_859" x="-314.554" y="-450.675" width="1505.98" height="1085.84" filterUnits="userSpaceOnUse" color-interpolation-filters="sRGB">
<feFlood flood-opacity="0" result="BackgroundImageFix"/>
<feBlend mode="normal" in="SourceGraphic" in2="BackgroundImageFix" result="shape"/>
<feGaussianBlur stdDeviation="51.2483" result="effect1_foregroundBlur_69_859"/>
</filter>
<filter id="filter6_f_69_859" x="-433.234" y="-569.355" width="1743.34" height="1323.2" filterUnits="userSpaceOnUse" color-interpolation-filters="sRGB">
<feFlood flood-opacity="0" result="BackgroundImageFix"/>
<feBlend mode="normal" in="SourceGraphic" in2="BackgroundImageFix" result="shape"/>
<feGaussianBlur stdDeviation="110.588" result="effect1_foregroundBlur_69_859"/>
</filter>
<filter id="filter7_f_69_859" x="-541.125" y="-677.246" width="1959.12" height="1538.99" filterUnits="userSpaceOnUse" color-interpolation-filters="sRGB">
<feFlood flood-opacity="0" result="BackgroundImageFix"/>
<feBlend mode="normal" in="SourceGraphic" in2="BackgroundImageFix" result="shape"/>
<feGaussianBlur stdDeviation="164.534" result="effect1_foregroundBlur_69_859"/>
</filter>
<filter id="filter8_f_69_859" x="162" y="-58" width="979" height="979" filterUnits="userSpaceOnUse" color-interpolation-filters="sRGB">
<feFlood flood-opacity="0" result="BackgroundImageFix"/>
<feBlend mode="normal" in="SourceGraphic" in2="BackgroundImageFix" result="shape"/>
<feGaussianBlur stdDeviation="100" result="effect1_foregroundBlur_69_859"/>
</filter>
<filter id="filter9_f_69_859" x="321.484" y="-320.574" width="949.441" height="1230.61" filterUnits="userSpaceOnUse" color-interpolation-filters="sRGB">
<feFlood flood-opacity="0" result="BackgroundImageFix"/>
<feBlend mode="normal" in="SourceGraphic" in2="BackgroundImageFix" result="shape"/>
<feGaussianBlur stdDeviation="8.09183" result="effect1_foregroundBlur_69_859"/>
</filter>
<filter id="filter10_f_69_859" x="265.444" y="-363.986" width="1024.43" height="1305.8" filterUnits="userSpaceOnUse" color-interpolation-filters="sRGB">
<feFlood flood-opacity="0" result="BackgroundImageFix"/>
<feBlend mode="normal" in="SourceGraphic" in2="BackgroundImageFix" result="shape"/>
<feGaussianBlur stdDeviation="24.2755" result="effect1_foregroundBlur_69_859"/>
</filter>
<filter id="filter11_f_69_859" x="243.866" y="-385.564" width="1067.58" height="1348.96" filterUnits="userSpaceOnUse" color-interpolation-filters="sRGB">
<feFlood flood-opacity="0" result="BackgroundImageFix"/>
<feBlend mode="normal" in="SourceGraphic" in2="BackgroundImageFix" result="shape"/>
<feGaussianBlur stdDeviation="35.0646" result="effect1_foregroundBlur_69_859"/>
</filter>
<filter id="filter12_f_69_859" x="243.866" y="-385.564" width="1067.58" height="1348.96" filterUnits="userSpaceOnUse" color-interpolation-filters="sRGB">
<feFlood flood-opacity="0" result="BackgroundImageFix"/>
<feBlend mode="normal" in="SourceGraphic" in2="BackgroundImageFix" result="shape"/>
<feGaussianBlur stdDeviation="35.0646" result="effect1_foregroundBlur_69_859"/>
</filter>
<filter id="filter13_f_69_859" x="146.764" y="-482.666" width="1216.99" height="1542.23" filterUnits="userSpaceOnUse" color-interpolation-filters="sRGB">
<feFlood flood-opacity="0" result="BackgroundImageFix"/>
<feBlend mode="normal" in="SourceGraphic" in2="BackgroundImageFix" result="shape"/>
<feGaussianBlur stdDeviation="83.6156" result="effect1_foregroundBlur_69_859"/>
</filter>
<filter id="filter14_f_69_859" x="188.293" y="-448.161" width="1106.07" height="1495.12" filterUnits="userSpaceOnUse" color-interpolation-filters="sRGB">
<feFlood flood-opacity="0" result="BackgroundImageFix"/>
<feBlend mode="normal" in="SourceGraphic" in2="BackgroundImageFix" result="shape"/>
<feGaussianBlur stdDeviation="51.2483" result="effect1_foregroundBlur_69_859"/>
</filter>
<filter id="filter15_f_69_859" x="69.6128" y="-566.841" width="1343.43" height="1732.48" filterUnits="userSpaceOnUse" color-interpolation-filters="sRGB">
<feFlood flood-opacity="0" result="BackgroundImageFix"/>
<feBlend mode="normal" in="SourceGraphic" in2="BackgroundImageFix" result="shape"/>
<feGaussianBlur stdDeviation="110.588" result="effect1_foregroundBlur_69_859"/>
</filter>
<filter id="filter16_f_69_859" x="-38.2783" y="-674.732" width="1559.21" height="1948.26" filterUnits="userSpaceOnUse" color-interpolation-filters="sRGB">
<feFlood flood-opacity="0" result="BackgroundImageFix"/>
<feBlend mode="normal" in="SourceGraphic" in2="BackgroundImageFix" result="shape"/>
<feGaussianBlur stdDeviation="164.534" result="effect1_foregroundBlur_69_859"/>
</filter>
<filter id="filter17_f_69_859" x="489.213" y="441.107" width="719.816" height="379.552" filterUnits="userSpaceOnUse" color-interpolation-filters="sRGB">
<feFlood flood-opacity="0" result="BackgroundImageFix"/>
<feBlend mode="normal" in="SourceGraphic" in2="BackgroundImageFix" result="shape"/>
<feGaussianBlur stdDeviation="3.31386" result="effect1_foregroundBlur_69_859"/>
</filter>
<filter id="filter18_f_69_859" x="498.375" y="172.29" width="683.81" height="634.929" filterUnits="userSpaceOnUse" color-interpolation-filters="sRGB">
<feFlood flood-opacity="0" result="BackgroundImageFix"/>
<feBlend mode="normal" in="SourceGraphic" in2="BackgroundImageFix" result="shape"/>
<feGaussianBlur stdDeviation="3.31386" result="effect1_foregroundBlur_69_859"/>
</filter>
<filter id="filter19_f_69_859" x="434.749" y="108.663" width="811.062" height="762.181" filterUnits="userSpaceOnUse" color-interpolation-filters="sRGB">
<feFlood flood-opacity="0" result="BackgroundImageFix"/>
<feBlend mode="normal" in="SourceGraphic" in2="BackgroundImageFix" result="shape"/>
<feGaussianBlur stdDeviation="35.1269" result="effect1_foregroundBlur_69_859"/>
</filter>
<filter id="filter20_f_69_859" x="466.562" y="140.476" width="747.436" height="698.555" filterUnits="userSpaceOnUse" color-interpolation-filters="sRGB">
<feFlood flood-opacity="0" result="BackgroundImageFix"/>
<feBlend mode="normal" in="SourceGraphic" in2="BackgroundImageFix" result="shape"/>
<feGaussianBlur stdDeviation="19.2204" result="effect1_foregroundBlur_69_859"/>
</filter>
<filter id="filter21_f_69_859" x="466.562" y="140.476" width="747.436" height="698.555" filterUnits="userSpaceOnUse" color-interpolation-filters="sRGB">
<feFlood flood-opacity="0" result="BackgroundImageFix"/>
<feBlend mode="normal" in="SourceGraphic" in2="BackgroundImageFix" result="shape"/>
<feGaussianBlur stdDeviation="19.2204" result="effect1_foregroundBlur_69_859"/>
</filter>
<filter id="filter22_f_69_859" x="457.4" y="140.476" width="756.598" height="698.555" filterUnits="userSpaceOnUse" color-interpolation-filters="sRGB">
<feFlood flood-opacity="0" result="BackgroundImageFix"/>
<feBlend mode="normal" in="SourceGraphic" in2="BackgroundImageFix" result="shape"/>
<feGaussianBlur stdDeviation="19.2204" result="effect1_foregroundBlur_69_859"/>
</filter>
<filter id="filter23_f_69_859" x="514.615" y="158.783" width="705.019" height="669.945" filterUnits="userSpaceOnUse" color-interpolation-filters="sRGB">
<feFlood flood-opacity="0" result="BackgroundImageFix"/>
<feBlend mode="normal" in="SourceGraphic" in2="BackgroundImageFix" result="shape"/>
<feGaussianBlur stdDeviation="8.61604" result="effect1_foregroundBlur_69_859"/>
</filter>
<filter id="filter24_f_69_859" x="498.125" y="160.384" width="710.321" height="669.675" filterUnits="userSpaceOnUse" color-interpolation-filters="sRGB">
<feFlood flood-opacity="0" result="BackgroundImageFix"/>
<feBlend mode="normal" in="SourceGraphic" in2="BackgroundImageFix" result="shape"/>
<feGaussianBlur stdDeviation="9.94158" result="effect1_foregroundBlur_69_859"/>
</filter>
<filter id="filter25_f_69_859" x="501.203" y="174.169" width="691.763" height="638.471" filterUnits="userSpaceOnUse" color-interpolation-filters="sRGB">
<feFlood flood-opacity="0" result="BackgroundImageFix"/>
<feBlend mode="normal" in="SourceGraphic" in2="BackgroundImageFix" result="shape"/>
<feGaussianBlur stdDeviation="5.30218" result="effect1_foregroundBlur_69_859"/>
</filter>
<filter id="filter26_f_69_859" x="479.995" y="295.199" width="734.181" height="534.347" filterUnits="userSpaceOnUse" color-interpolation-filters="sRGB">
<feFlood flood-opacity="0" result="BackgroundImageFix"/>
<feBlend mode="normal" in="SourceGraphic" in2="BackgroundImageFix" result="shape"/>
<feGaussianBlur stdDeviation="15.9065" result="effect1_foregroundBlur_69_859"/>
</filter>
<filter id="filter27_f_69_859" x="479.995" y="295.199" width="734.181" height="537.497" filterUnits="userSpaceOnUse" color-interpolation-filters="sRGB">
<feFlood flood-opacity="0" result="BackgroundImageFix"/>
<feBlend mode="normal" in="SourceGraphic" in2="BackgroundImageFix" result="shape"/>
<feGaussianBlur stdDeviation="15.9065" result="effect1_foregroundBlur_69_859"/>
</filter>
<filter id="filter28_f_69_859" x="-183.503" y="154.838" width="524.234" height="569.853" filterUnits="userSpaceOnUse" color-interpolation-filters="sRGB">
<feFlood flood-opacity="0" result="BackgroundImageFix"/>
<feBlend mode="normal" in="SourceGraphic" in2="BackgroundImageFix" result="shape"/>
<feGaussianBlur stdDeviation="7.26216" result="effect1_foregroundBlur_69_859"/>
</filter>
<filter id="filter29_f_69_859" x="-205.461" y="128.461" width="586.355" height="633.157" filterUnits="userSpaceOnUse" color-interpolation-filters="sRGB">
<feFlood flood-opacity="0" result="BackgroundImageFix"/>
<feBlend mode="normal" in="SourceGraphic" in2="BackgroundImageFix" result="shape"/>
<feGaussianBlur stdDeviation="21.7865" result="effect1_foregroundBlur_69_859"/>
</filter>
<filter id="filter30_f_69_859" x="-224.826" y="109.095" width="625.086" height="671.888" filterUnits="userSpaceOnUse" color-interpolation-filters="sRGB">
<feFlood flood-opacity="0" result="BackgroundImageFix"/>
<feBlend mode="normal" in="SourceGraphic" in2="BackgroundImageFix" result="shape"/>
<feGaussianBlur stdDeviation="31.4693" result="effect1_foregroundBlur_69_859"/>
</filter>
<filter id="filter31_f_69_859" x="-224.826" y="109.095" width="625.086" height="671.888" filterUnits="userSpaceOnUse" color-interpolation-filters="sRGB">
<feFlood flood-opacity="0" result="BackgroundImageFix"/>
<feBlend mode="normal" in="SourceGraphic" in2="BackgroundImageFix" result="shape"/>
<feGaussianBlur stdDeviation="31.4693" result="effect1_foregroundBlur_69_859"/>
</filter>
<filter id="filter32_f_69_859" x="-297.63" y="24.8998" width="785.036" height="843.229" filterUnits="userSpaceOnUse" color-interpolation-filters="sRGB">
<feFlood flood-opacity="0" result="BackgroundImageFix"/>
<feBlend mode="normal" in="SourceGraphic" in2="BackgroundImageFix" result="shape"/>
<feGaussianBlur stdDeviation="75.0423" result="effect1_foregroundBlur_69_859"/>
</filter>
<filter id="filter33_f_69_859" x="-239.397" y="61.3464" width="675.524" height="756.861" filterUnits="userSpaceOnUse" color-interpolation-filters="sRGB">
<feFlood flood-opacity="0" result="BackgroundImageFix"/>
<feBlend mode="normal" in="SourceGraphic" in2="BackgroundImageFix" result="shape"/>
<feGaussianBlur stdDeviation="45.9937" result="effect1_foregroundBlur_69_859"/>
</filter>
<filter id="filter34_f_69_859" x="-345.909" y="-45.1652" width="888.548" height="969.884" filterUnits="userSpaceOnUse" color-interpolation-filters="sRGB">
<feFlood flood-opacity="0" result="BackgroundImageFix"/>
<feBlend mode="normal" in="SourceGraphic" in2="BackgroundImageFix" result="shape"/>
<feGaussianBlur stdDeviation="99.2495" result="effect1_foregroundBlur_69_859"/>
</filter>
<filter id="filter35_f_69_859" x="-442.737" y="-141.994" width="1082.21" height="1163.54" filterUnits="userSpaceOnUse" color-interpolation-filters="sRGB">
<feFlood flood-opacity="0" result="BackgroundImageFix"/>
<feBlend mode="normal" in="SourceGraphic" in2="BackgroundImageFix" result="shape"/>
<feGaussianBlur stdDeviation="147.664" result="effect1_foregroundBlur_69_859"/>
</filter>
<filter id="filter36_f_69_859" x="-116.548" y="196.354" width="371.965" height="153.856" filterUnits="userSpaceOnUse" color-interpolation-filters="sRGB">
<feFlood flood-opacity="0" result="BackgroundImageFix"/>
<feBlend mode="normal" in="SourceGraphic" in2="BackgroundImageFix" result="shape"/>
<feGaussianBlur stdDeviation="2.97408" result="effect1_foregroundBlur_69_859"/>
</filter>
<filter id="filter37_f_69_859" x="-105.389" y="205.493" width="356.342" height="265.484" filterUnits="userSpaceOnUse" color-interpolation-filters="sRGB">
<feFlood flood-opacity="0" result="BackgroundImageFix"/>
<feBlend mode="normal" in="SourceGraphic" in2="BackgroundImageFix" result="shape"/>
<feGaussianBlur stdDeviation="2.97408" result="effect1_foregroundBlur_69_859"/>
</filter>
<filter id="filter38_f_69_859" x="-162.491" y="148.391" width="470.546" height="379.689" filterUnits="userSpaceOnUse" color-interpolation-filters="sRGB">
<feFlood flood-opacity="0" result="BackgroundImageFix"/>
<feBlend mode="normal" in="SourceGraphic" in2="BackgroundImageFix" result="shape"/>
<feGaussianBlur stdDeviation="31.5253" result="effect1_foregroundBlur_69_859"/>
</filter>
<filter id="filter39_f_69_859" x="-133.94" y="176.942" width="413.444" height="322.587" filterUnits="userSpaceOnUse" color-interpolation-filters="sRGB">
<feFlood flood-opacity="0" result="BackgroundImageFix"/>
<feBlend mode="normal" in="SourceGraphic" in2="BackgroundImageFix" result="shape"/>
<feGaussianBlur stdDeviation="17.2497" result="effect1_foregroundBlur_69_859"/>
</filter>
<filter id="filter40_f_69_859" x="-133.94" y="176.942" width="413.444" height="322.587" filterUnits="userSpaceOnUse" color-interpolation-filters="sRGB">
<feFlood flood-opacity="0" result="BackgroundImageFix"/>
<feBlend mode="normal" in="SourceGraphic" in2="BackgroundImageFix" result="shape"/>
<feGaussianBlur stdDeviation="17.2497" result="effect1_foregroundBlur_69_859"/>
</filter>
<filter id="filter41_f_69_859" x="-133.94" y="176.942" width="417.908" height="322.587" filterUnits="userSpaceOnUse" color-interpolation-filters="sRGB">
<feFlood flood-opacity="0" result="BackgroundImageFix"/>
<feBlend mode="normal" in="SourceGraphic" in2="BackgroundImageFix" result="shape"/>
<feGaussianBlur stdDeviation="17.2497" result="effect1_foregroundBlur_69_859"/>
</filter>
<filter id="filter42_f_69_859" x="-126.065" y="189.702" width="375.376" height="294.515" filterUnits="userSpaceOnUse" color-interpolation-filters="sRGB">
<feFlood flood-opacity="0" result="BackgroundImageFix"/>
<feBlend mode="normal" in="SourceGraphic" in2="BackgroundImageFix" result="shape"/>
<feGaussianBlur stdDeviation="7.73261" result="effect1_foregroundBlur_69_859"/>
</filter>
<filter id="filter43_f_69_859" x="-122.098" y="189.406" width="380.134" height="295.654" filterUnits="userSpaceOnUse" color-interpolation-filters="sRGB">
<feFlood flood-opacity="0" result="BackgroundImageFix"/>
<feBlend mode="normal" in="SourceGraphic" in2="BackgroundImageFix" result="shape"/>
<feGaussianBlur stdDeviation="8.92225" result="effect1_foregroundBlur_69_859"/>
</filter>
<filter id="filter44_f_69_859" x="-111.726" y="202.204" width="363.479" height="270.375" filterUnits="userSpaceOnUse" color-interpolation-filters="sRGB">
<feFlood flood-opacity="0" result="BackgroundImageFix"/>
<feBlend mode="normal" in="SourceGraphic" in2="BackgroundImageFix" result="shape"/>
<feGaussianBlur stdDeviation="4.75853" result="effect1_foregroundBlur_69_859"/>
</filter>
<filter id="filter45_f_69_859" x="-130.76" y="185.204" width="401.548" height="237.695" filterUnits="userSpaceOnUse" color-interpolation-filters="sRGB">
<feFlood flood-opacity="0" result="BackgroundImageFix"/>
<feBlend mode="normal" in="SourceGraphic" in2="BackgroundImageFix" result="shape"/>
<feGaussianBlur stdDeviation="14.2756" result="effect1_foregroundBlur_69_859"/>
</filter>
<filter id="filter46_f_69_859" x="-130.76" y="185.245" width="401.548" height="237.654" filterUnits="userSpaceOnUse" color-interpolation-filters="sRGB">
<feFlood flood-opacity="0" result="BackgroundImageFix"/>
<feBlend mode="normal" in="SourceGraphic" in2="BackgroundImageFix" result="shape"/>
<feGaussianBlur stdDeviation="14.2756" result="effect1_foregroundBlur_69_859"/>
</filter>
<linearGradient id="paint0_linear_69_859" x1="114.498" y1="218.339" x2="114.498" y2="1813" gradientUnits="userSpaceOnUse">
<stop stop-color="#C4C4C4" stop-opacity="0"/>
<stop offset="0.380208" stop-color="#C4C4C4"/>
<stop offset="0.578125" stop-color="#C4C4C4"/>
<stop offset="1" stop-color="#C4C4C4" stop-opacity="0"/>
</linearGradient>
<linearGradient id="paint1_linear_69_859" x1="114.498" y1="218.339" x2="114.498" y2="1813" gradientUnits="userSpaceOnUse">
<stop stop-color="#BDEE60"/>
<stop offset="0.989583" stop-color="#005436"/>
</linearGradient>
<linearGradient id="paint2_linear_69_859" x1="-40.8608" y1="-321.985" x2="1086.79" y2="184.159" gradientUnits="userSpaceOnUse">
<stop stop-color="#65A3FF"/>
<stop offset="1" stop-color="#4122FF"/>
</linearGradient>
<linearGradient id="paint3_linear_69_859" x1="-40.8608" y1="-321.985" x2="1086.79" y2="184.159" gradientUnits="userSpaceOnUse">
<stop stop-color="#9F60EE"/>
<stop offset="0.765625" stop-color="#1400FF"/>
<stop offset="1" stop-color="#1400FF"/>
</linearGradient>
<linearGradient id="paint4_linear_69_859" x1="-45.1961" y1="-312.326" x2="1082.45" y2="193.817" gradientUnits="userSpaceOnUse">
<stop stop-color="#65A3FF"/>
<stop offset="1" stop-color="#4122FF"/>
</linearGradient>
<linearGradient id="paint5_linear_69_859" x1="-45.1961" y1="-312.326" x2="1082.45" y2="193.817" gradientUnits="userSpaceOnUse">
<stop stop-color="#9F60EE"/>
<stop offset="0.765625" stop-color="#1400FF"/>
<stop offset="1" stop-color="#1400FF"/>
</linearGradient>
<linearGradient id="paint6_linear_69_859" x1="-51.8465" y1="-294.278" x2="1084.25" y2="215.659" gradientUnits="userSpaceOnUse">
<stop stop-color="#65A3FF"/>
<stop offset="1" stop-color="#4122FF"/>
</linearGradient>
<linearGradient id="paint7_linear_69_859" x1="-51.8465" y1="-294.278" x2="1084.25" y2="215.659" gradientUnits="userSpaceOnUse">
<stop stop-color="#9F60EE"/>
<stop offset="0.765625" stop-color="#1400FF"/>
<stop offset="1" stop-color="#1400FF"/>
</linearGradient>
<linearGradient id="paint8_linear_69_859" x1="-51.8465" y1="-294.278" x2="1084.25" y2="215.659" gradientUnits="userSpaceOnUse">
<stop stop-color="#65A3FF"/>
<stop offset="1" stop-color="#4122FF"/>
</linearGradient>
<linearGradient id="paint9_linear_69_859" x1="-51.8465" y1="-294.278" x2="1084.25" y2="215.659" gradientUnits="userSpaceOnUse">
<stop stop-color="#9F60EE"/>
<stop offset="0.765625" stop-color="#1400FF"/>
<stop offset="1" stop-color="#1400FF"/>
</linearGradient>
<linearGradient id="paint10_linear_69_859" x1="-51.8465" y1="-294.278" x2="1084.25" y2="215.659" gradientUnits="userSpaceOnUse">
<stop stop-color="#65A3FF"/>
<stop offset="1" stop-color="#4122FF"/>
</linearGradient>
<linearGradient id="paint11_linear_69_859" x1="-51.8465" y1="-294.278" x2="1084.25" y2="215.659" gradientUnits="userSpaceOnUse">
<stop stop-color="#9F60EE"/>
<stop offset="0.765625" stop-color="#1400FF"/>
<stop offset="1" stop-color="#1400FF"/>
</linearGradient>
<linearGradient id="paint12_linear_69_859" x1="-63.7685" y1="-267.717" x2="1072.33" y2="242.22" gradientUnits="userSpaceOnUse">
<stop stop-color="#65A3FF"/>
<stop offset="1" stop-color="#4122FF"/>
</linearGradient>
<linearGradient id="paint13_linear_69_859" x1="-63.7685" y1="-267.717" x2="1072.33" y2="242.22" gradientUnits="userSpaceOnUse">
<stop stop-color="#9F60EE"/>
<stop offset="0.765625" stop-color="#1400FF"/>
<stop offset="1" stop-color="#1400FF"/>
</linearGradient>
<linearGradient id="paint14_linear_69_859" x1="-116.618" y1="-274.394" x2="1110.03" y2="276.186" gradientUnits="userSpaceOnUse">
<stop stop-color="#65A3FF"/>
<stop offset="1" stop-color="#4122FF"/>
</linearGradient>
<linearGradient id="paint15_linear_69_859" x1="-116.618" y1="-274.394" x2="1110.03" y2="276.186" gradientUnits="userSpaceOnUse">
<stop stop-color="#9F60EE"/>
<stop offset="0.765625" stop-color="#1400FF"/>
<stop offset="1" stop-color="#1400FF"/>
</linearGradient>
<linearGradient id="paint16_linear_69_859" x1="-116.618" y1="-274.394" x2="1110.03" y2="276.186" gradientUnits="userSpaceOnUse">
<stop stop-color="#65A3FF"/>
<stop offset="1" stop-color="#4122FF"/>
</linearGradient>
<linearGradient id="paint17_linear_69_859" x1="-116.618" y1="-274.394" x2="1110.03" y2="276.186" gradientUnits="userSpaceOnUse">
<stop stop-color="#9F60EE"/>
<stop offset="0.765625" stop-color="#1400FF"/>
<stop offset="1" stop-color="#1400FF"/>
</linearGradient>
<linearGradient id="paint18_linear_69_859" x1="-116.618" y1="-274.394" x2="1110.03" y2="276.186" gradientUnits="userSpaceOnUse">
<stop stop-color="#65A3FF"/>
<stop offset="1" stop-color="#4122FF"/>
</linearGradient>
<linearGradient id="paint19_linear_69_859" x1="-116.618" y1="-274.394" x2="1110.03" y2="276.186" gradientUnits="userSpaceOnUse">
<stop stop-color="#9F60EE"/>
<stop offset="0.765625" stop-color="#1400FF"/>
<stop offset="1" stop-color="#1400FF"/>
</linearGradient>
<linearGradient id="paint20_linear_69_859" x1="1220.1" y1="-597.442" x2="1220.1" y2="997.222" gradientUnits="userSpaceOnUse">
<stop stop-color="#C4C4C4" stop-opacity="0"/>
<stop offset="0.380208" stop-color="#C4C4C4"/>
<stop offset="0.578125" stop-color="#C4C4C4"/>
<stop offset="1" stop-color="#C4C4C4" stop-opacity="0"/>
</linearGradient>
<linearGradient id="paint21_linear_69_859" x1="1220.1" y1="-597.442" x2="1220.1" y2="997.222" gradientUnits="userSpaceOnUse">
<stop stop-color="#BDEE60"/>
<stop offset="0.989583" stop-color="#005436"/>
</linearGradient>
<linearGradient id="paint22_linear_69_859" x1="1177.04" y1="-165.676" x2="632.966" y2="944.169" gradientUnits="userSpaceOnUse">
<stop stop-color="#65A3FF"/>
<stop offset="1" stop-color="#4122FF"/>
</linearGradient>
<linearGradient id="paint23_linear_69_859" x1="1177.04" y1="-165.676" x2="632.966" y2="944.169" gradientUnits="userSpaceOnUse">
<stop stop-color="#9F60EE"/>
<stop offset="0.765625" stop-color="#070054"/>
<stop offset="1" stop-color="#070054"/>
</linearGradient>
<linearGradient id="paint24_linear_69_859" x1="1167.53" y1="-170.336" x2="623.46" y2="939.509" gradientUnits="userSpaceOnUse">
<stop stop-color="#65A3FF"/>
<stop offset="1" stop-color="#4122FF"/>
</linearGradient>
<linearGradient id="paint25_linear_69_859" x1="1167.53" y1="-170.336" x2="623.46" y2="939.509" gradientUnits="userSpaceOnUse">
<stop stop-color="#9F60EE"/>
<stop offset="0.765625" stop-color="#070054"/>
<stop offset="1" stop-color="#070054"/>
</linearGradient>
<linearGradient id="paint26_linear_69_859" x1="1149.72" y1="-177.595" x2="601.57" y2="940.568" gradientUnits="userSpaceOnUse">
<stop stop-color="#65A3FF"/>
<stop offset="1" stop-color="#4122FF"/>
</linearGradient>
<linearGradient id="paint27_linear_69_859" x1="1149.72" y1="-177.595" x2="601.57" y2="940.568" gradientUnits="userSpaceOnUse">
<stop stop-color="#9F60EE"/>
<stop offset="0.765625" stop-color="#070054"/>
<stop offset="1" stop-color="#070054"/>
</linearGradient>
<linearGradient id="paint28_linear_69_859" x1="1149.72" y1="-177.595" x2="601.57" y2="940.568" gradientUnits="userSpaceOnUse">
<stop stop-color="#65A3FF"/>
<stop offset="1" stop-color="#4122FF"/>
</linearGradient>
<linearGradient id="paint29_linear_69_859" x1="1149.72" y1="-177.595" x2="601.57" y2="940.568" gradientUnits="userSpaceOnUse">
<stop stop-color="#9F60EE"/>
<stop offset="0.765625" stop-color="#070054"/>
<stop offset="1" stop-color="#070054"/>
</linearGradient>
<linearGradient id="paint30_linear_69_859" x1="1149.72" y1="-177.595" x2="601.57" y2="940.568" gradientUnits="userSpaceOnUse">
<stop stop-color="#65A3FF"/>
<stop offset="1" stop-color="#4122FF"/>
</linearGradient>
<linearGradient id="paint31_linear_69_859" x1="1149.72" y1="-177.595" x2="601.57" y2="940.568" gradientUnits="userSpaceOnUse">
<stop stop-color="#9F60EE"/>
<stop offset="0.765625" stop-color="#070054"/>
<stop offset="1" stop-color="#070054"/>
</linearGradient>
<linearGradient id="paint32_linear_69_859" x1="1123.58" y1="-190.41" x2="575.428" y2="927.753" gradientUnits="userSpaceOnUse">
<stop stop-color="#65A3FF"/>
<stop offset="1" stop-color="#4122FF"/>
</linearGradient>
<linearGradient id="paint33_linear_69_859" x1="1123.58" y1="-190.41" x2="575.428" y2="927.753" gradientUnits="userSpaceOnUse">
<stop stop-color="#9F60EE"/>
<stop offset="0.765625" stop-color="#070054"/>
<stop offset="1" stop-color="#070054"/>
</linearGradient>
<linearGradient id="paint34_linear_69_859" x1="1132.04" y1="-243.003" x2="540.204" y2="964.28" gradientUnits="userSpaceOnUse">
<stop stop-color="#65A3FF"/>
<stop offset="1" stop-color="#4122FF"/>
</linearGradient>
<linearGradient id="paint35_linear_69_859" x1="1132.04" y1="-243.003" x2="540.204" y2="964.28" gradientUnits="userSpaceOnUse">
<stop stop-color="#9F60EE"/>
<stop offset="0.765625" stop-color="#070054"/>
<stop offset="1" stop-color="#070054"/>
</linearGradient>
<linearGradient id="paint36_linear_69_859" x1="1132.04" y1="-243.003" x2="540.204" y2="964.28" gradientUnits="userSpaceOnUse">
<stop stop-color="#65A3FF"/>
<stop offset="1" stop-color="#4122FF"/>
</linearGradient>
<linearGradient id="paint37_linear_69_859" x1="1132.04" y1="-243.003" x2="540.204" y2="964.28" gradientUnits="userSpaceOnUse">
<stop stop-color="#9F60EE"/>
<stop offset="0.765625" stop-color="#070054"/>
<stop offset="1" stop-color="#070054"/>
</linearGradient>
<linearGradient id="paint38_linear_69_859" x1="1132.04" y1="-243.003" x2="540.204" y2="964.28" gradientUnits="userSpaceOnUse">
<stop stop-color="#65A3FF"/>
<stop offset="1" stop-color="#4122FF"/>
</linearGradient>
<linearGradient id="paint39_linear_69_859" x1="1132.04" y1="-243.003" x2="540.204" y2="964.28" gradientUnits="userSpaceOnUse">
<stop stop-color="#9F60EE"/>
<stop offset="0.765625" stop-color="#070054"/>
<stop offset="1" stop-color="#070054"/>
</linearGradient>
<linearGradient id="paint40_linear_69_859" x1="1011.15" y1="539.217" x2="500.696" y2="649.642" gradientUnits="userSpaceOnUse">
<stop stop-color="#C4C4C4" stop-opacity="0"/>
<stop offset="0.565737" stop-color="#C4C4C4"/>
<stop offset="1" stop-color="#C4C4C4" stop-opacity="0"/>
</linearGradient>
<linearGradient id="paint41_linear_69_859" x1="610.8" y1="1005.03" x2="1010.63" y2="321.392" gradientUnits="userSpaceOnUse">
<stop stop-color="#BDEE60"/>
<stop offset="0.989583" stop-color="#005436"/>
</linearGradient>
<linearGradient id="paint42_linear_69_859" x1="720.649" y1="869.523" x2="1105.23" y2="211.956" gradientUnits="userSpaceOnUse">
<stop stop-color="#9F60EE"/>
<stop offset="0.765625" stop-color="#070054"/>
<stop offset="1" stop-color="#070054"/>
</linearGradient>
<linearGradient id="paint43_linear_69_859" x1="693.804" y1="856.083" x2="1083.8" y2="189.266" gradientUnits="userSpaceOnUse">
<stop stop-color="#9F60EE"/>
<stop offset="0.765625" stop-color="#070054"/>
<stop offset="1" stop-color="#070054"/>
</linearGradient>
<linearGradient id="paint44_linear_69_859" x1="693.804" y1="856.083" x2="1083.8" y2="189.266" gradientUnits="userSpaceOnUse">
<stop stop-color="#9F60EE"/>
<stop offset="0.765625" stop-color="#070054"/>
<stop offset="1" stop-color="#070054"/>
</linearGradient>
<linearGradient id="paint45_linear_69_859" x1="693.804" y1="856.083" x2="1083.8" y2="189.266" gradientUnits="userSpaceOnUse">
<stop stop-color="#9F60EE"/>
<stop offset="0.765625" stop-color="#070054"/>
<stop offset="1" stop-color="#070054"/>
</linearGradient>
<linearGradient id="paint46_linear_69_859" x1="693.804" y1="856.083" x2="1083.8" y2="189.266" gradientUnits="userSpaceOnUse">
<stop stop-color="#9F60EE"/>
<stop offset="0.765625" stop-color="#070054"/>
<stop offset="1" stop-color="#070054"/>
</linearGradient>
<linearGradient id="paint47_linear_69_859" x1="688.382" y1="858.326" x2="1080.74" y2="187.475" gradientUnits="userSpaceOnUse">
<stop stop-color="#9F60EE"/>
<stop offset="0.765625" stop-color="#070054"/>
<stop offset="1" stop-color="#070054"/>
</linearGradient>
<linearGradient id="paint48_linear_69_859" x1="720.649" y1="869.523" x2="1105.23" y2="211.956" gradientUnits="userSpaceOnUse">
<stop stop-color="#9F60EE"/>
<stop offset="0.765625" stop-color="#070054"/>
<stop offset="1" stop-color="#070054"/>
</linearGradient>
<linearGradient id="paint49_linear_69_859" x1="706.81" y1="868.203" x2="1091.39" y2="210.636" gradientUnits="userSpaceOnUse">
<stop stop-color="#9F60EE"/>
<stop offset="0.765625" stop-color="#070054"/>
<stop offset="1" stop-color="#070054"/>
</linearGradient>
<linearGradient id="paint50_linear_69_859" x1="700.609" y1="860.063" x2="1086.18" y2="200.814" gradientUnits="userSpaceOnUse">
<stop stop-color="#9F60EE"/>
<stop offset="0.765625" stop-color="#070054"/>
<stop offset="1" stop-color="#070054"/>
</linearGradient>
<linearGradient id="paint51_linear_69_859" x1="696.868" y1="866.458" x2="1029.13" y2="298.354" gradientUnits="userSpaceOnUse">
<stop stop-color="#9F60EE"/>
<stop offset="0.765625" stop-color="#070054"/>
<stop offset="1" stop-color="#070054"/>
</linearGradient>
<linearGradient id="paint52_linear_69_859" x1="696.868" y1="866.458" x2="1029.13" y2="298.354" gradientUnits="userSpaceOnUse">
<stop stop-color="#9F60EE"/>
<stop offset="0.765625" stop-color="#070054"/>
<stop offset="1" stop-color="#070054"/>
</linearGradient>
<linearGradient id="paint53_linear_69_859" x1="308.13" y1="872.811" x2="308.13" y2="1639.01" gradientUnits="userSpaceOnUse">
<stop stop-color="#C4C4C4" stop-opacity="0"/>
<stop offset="0.380208" stop-color="#C4C4C4"/>
<stop offset="0.578125" stop-color="#C4C4C4"/>
<stop offset="1" stop-color="#C4C4C4" stop-opacity="0"/>
</linearGradient>
<linearGradient id="paint54_linear_69_859" x1="-166.128" y1="614.797" x2="206.293" y2="152.194" gradientUnits="userSpaceOnUse">
<stop stop-color="#65A3FF"/>
<stop offset="1" stop-color="#4122FF"/>
</linearGradient>
<linearGradient id="paint55_linear_69_859" x1="-162.166" y1="617.987" x2="210.256" y2="155.384" gradientUnits="userSpaceOnUse">
<stop stop-color="#65A3FF"/>
<stop offset="1" stop-color="#4122FF"/>
</linearGradient>
<linearGradient id="paint56_linear_69_859" x1="-154.586" y1="623.273" x2="220.627" y2="157.203" gradientUnits="userSpaceOnUse">
<stop stop-color="#65A3FF"/>
<stop offset="1" stop-color="#4122FF"/>
</linearGradient>
<linearGradient id="paint57_linear_69_859" x1="-154.586" y1="623.273" x2="220.627" y2="157.203" gradientUnits="userSpaceOnUse">
<stop stop-color="#65A3FF"/>
<stop offset="1" stop-color="#4122FF"/>
</linearGradient>
<linearGradient id="paint58_linear_69_859" x1="-154.586" y1="623.273" x2="220.627" y2="157.203" gradientUnits="userSpaceOnUse">
<stop stop-color="#65A3FF"/>
<stop offset="1" stop-color="#4122FF"/>
</linearGradient>
<linearGradient id="paint59_linear_69_859" x1="-143.689" y1="632.046" x2="231.524" y2="165.975" gradientUnits="userSpaceOnUse">
<stop stop-color="#65A3FF"/>
<stop offset="1" stop-color="#4122FF"/>
</linearGradient>
<linearGradient id="paint60_linear_69_859" x1="-153.221" y1="655.8" x2="251.897" y2="152.582" gradientUnits="userSpaceOnUse">
<stop stop-color="#65A3FF"/>
<stop offset="1" stop-color="#4122FF"/>
</linearGradient>
<linearGradient id="paint61_linear_69_859" x1="-153.221" y1="655.8" x2="251.897" y2="152.582" gradientUnits="userSpaceOnUse">
<stop stop-color="#65A3FF"/>
<stop offset="1" stop-color="#4122FF"/>
</linearGradient>
<linearGradient id="paint62_linear_69_859" x1="-153.221" y1="655.8" x2="251.897" y2="152.582" gradientUnits="userSpaceOnUse">
<stop stop-color="#65A3FF"/>
<stop offset="1" stop-color="#4122FF"/>
</linearGradient>
<linearGradient id="paint63_linear_69_859" x1="-13.7988" y1="301.977" x2="237.125" y2="304.229" gradientUnits="userSpaceOnUse">
<stop stop-color="#C4C4C4" stop-opacity="0"/>
<stop offset="0.565737" stop-color="#C4C4C4"/>
<stop offset="1" stop-color="#C4C4C4" stop-opacity="0"/>
</linearGradient>
</defs>
</svg>
