<svg id="visual" viewBox="0 0 960 540" width="960" height="540" xmlns="http://www.w3.org/2000/svg" xmlns:xlink="http://www.w3.org/1999/xlink" version="1.1"><rect x="0" y="0" width="960" height="540" fill="#050505"></rect><path d="M0 139L14.5 144.7C29 150.3 58 161.7 87.2 178.7C116.3 195.7 145.7 218.3 174.8 245.8C204 273.3 233 305.7 262 298.2C291 290.7 320 243.3 349 206.5C378 169.7 407 143.3 436.2 175.8C465.3 208.3 494.7 299.7 523.8 313.2C553 326.7 582 262.3 611 251.8C640 241.3 669 284.7 698 273.7C727 262.7 756 197.3 785.2 177.5C814.3 157.7 843.7 183.3 872.8 202.3C902 221.3 931 233.7 945.5 239.8L960 246L960 0L945.5 0C931 0 902 0 872.8 0C843.7 0 814.3 0 785.2 0C756 0 727 0 698 0C669 0 640 0 611 0C582 0 553 0 523.8 0C494.7 0 465.3 0 436.2 0C407 0 378 0 349 0C320 0 291 0 262 0C233 0 204 0 174.8 0C145.7 0 116.3 0 87.2 0C58 0 29 0 14.5 0L0 0Z" fill="#27043d" stroke-linecap="round" stroke-linejoin="miter"></path></svg>